<svg class="main-svg" xmlns="http://www.w3.org/2000/svg" xmlns:xlink="http://www.w3.org/1999/xlink" width="700" height="450"><rect x="0" y="0" width="700" height="450" style="fill: rgb(255, 255, 255); fill-opacity: 1;"/><defs id="defs-c1a6b5"><g class="clips"><clipPath class="axesclip" id="clipc1a6b5x"><rect x="50" y="0" width="600" height="450"/></clipPath><clipPath class="axesclip" id="clipc1a6b5y"><rect x="0" y="60" width="700" height="340"/></clipPath><clipPath class="axesclip" id="clipc1a6b5xy"><rect x="50" y="60" width="600" height="340"/></clipPath><clipPath class="plotclip" id="clipc1a6b5xyplot"><rect width="600" height="340"/></clipPath></g></defs><g class="bglayer"><rect class="bg" x="50" y="60" width="600" height="340" style="fill: rgb(255, 255, 255); fill-opacity: 1; stroke-width: 0px;"/></g><g class="layer-below"><g class="imagelayer"/><g class="shapelayer"/></g><g class="cartesianlayer"><g class="subplot xy"><g class="layer-subplot"><g class="shapelayer"/><g class="imagelayer"/></g><g class="gridlayer" transform="translate(50,60)"><path class="xgrid crisp" d="M0,0v340" transform="translate(135.43,0)" style="stroke: rgb(238, 238, 238); stroke-opacity: 1; stroke-width: 1px;"/><path class="xgrid crisp" d="M0,0v340" transform="translate(270.92,0)" style="stroke: rgb(238, 238, 238); stroke-opacity: 1; stroke-width: 1px;"/><path class="xgrid crisp" d="M0,0v340" transform="translate(406.41,0)" style="stroke: rgb(238, 238, 238); stroke-opacity: 1; stroke-width: 1px;"/><path class="xgrid crisp" d="M0,0v340" transform="translate(541.9,0)" style="stroke: rgb(238, 238, 238); stroke-opacity: 1; stroke-width: 1px;"/><path class="ygrid crisp" d="M0,0h600" transform="translate(0,262.92)" style="stroke: rgb(238, 238, 238); stroke-opacity: 1; stroke-width: 1px;"/><path class="ygrid crisp" d="M0,0h600" transform="translate(0,201.44)" style="stroke: rgb(238, 238, 238); stroke-opacity: 1; stroke-width: 1px;"/><path class="ygrid crisp" d="M0,0h600" transform="translate(0,139.96)" style="stroke: rgb(238, 238, 238); stroke-opacity: 1; stroke-width: 1px;"/><path class="ygrid crisp" d="M0,0h600" transform="translate(0,78.48)" style="stroke: rgb(238, 238, 238); stroke-opacity: 1; stroke-width: 1px;"/><path class="ygrid crisp" d="M0,0h600" transform="translate(0,17)" style="stroke: rgb(238, 238, 238); stroke-opacity: 1; stroke-width: 1px;"/></g><g class="overgrid"/><g class="zerolinelayer" transform="translate(50,60)"><path class="yzl zl crisp" d="M0,0h600" transform="translate(0,324.41)" style="stroke: rgb(68, 68, 68); stroke-opacity: 1; stroke-width: 1px;"/></g><g class="overzero"/><g class="plot" transform="translate(50, 60)" clip-path="url(#clipc1a6b5xyplot)"><g class="imagelayer"/><g class="maplayer"/><g class="barlayer"/><g class="carpetlayer"/><g class="boxlayer"/><g class="scatterlayer"><g class="trace scatter trace731184" style="stroke-miterlimit: 2; opacity: 1;"><path class="js-line" d="M0,323L2.71,301.3L5.42,320.92L6.56,320.83L9.27,318L11.98,321.66L14.69,320.87L17.4,314.01L20.11,317.8L22.82,307.99L25.53,320.54L28.24,311.33L30.95,307.65L33.66,297.21L36.37,313.13L39.08,291.06L41.78,282.39L44.49,260.85L47.2,259.43L49.91,198.29L52.62,239.57L55.33,170.79L58.04,122.5L60.75,37.74L63.46,58.14L66.17,214.2L68.88,169.29L71.59,17L74.3,17L77.01,17L79.72,159.21L82.43,17L85.14,17L87.85,17L90.56,32.35L93.27,17L95.98,17L600,17" style="vector-effect: non-scaling-stroke; fill: none; stroke: rgb(31, 119, 180); stroke-opacity: 1; stroke-width: 2px; opacity: 1;"/><g class="points"/></g></g></g><g class="overplot"/><path class="xlines crisp" transform="translate(50,60)" d="M-1,340.5h602" style="fill: none; stroke-width: 1px; stroke: rgb(0, 0, 0); stroke-opacity: 0;"/><path class="ylines crisp" transform="translate(50,60)" d="M-0.5,-1v341" stroke-width="1px" style="fill: none; stroke: rgb(0, 0, 0); stroke-opacity: 0;"/><g class="overlines"/><g class="xaxislayer" transform="translate(50,60)"><g class="xtick"><text text-anchor="middle" x="0" y="354" transform="translate(-0.05,0)" style="font-family: 'Open Sans', verdana, arial, sans-serif; font-size: 12px; fill: rgb(68, 68, 68); fill-opacity: 1; visibility: visible; white-space: pre;" data-bb="24">0</text></g><g class="xtick"><text text-anchor="middle" x="0" y="354" transform="translate(135.43,0)" style="font-family: 'Open Sans', verdana, arial, sans-serif; font-size: 12px; fill: rgb(68, 68, 68); fill-opacity: 1; visibility: visible; white-space: pre;" data-bb="25">5k</text></g><g class="xtick"><text text-anchor="middle" x="0" y="354" transform="translate(270.92,0)" style="font-family: 'Open Sans', verdana, arial, sans-serif; font-size: 12px; fill: rgb(68, 68, 68); fill-opacity: 1; visibility: visible; white-space: pre;" data-bb="26">10k</text></g><g class="xtick"><text text-anchor="middle" x="0" y="354" transform="translate(406.41,0)" style="font-family: 'Open Sans', verdana, arial, sans-serif; font-size: 12px; fill: rgb(68, 68, 68); fill-opacity: 1; visibility: visible; white-space: pre;" data-bb="27">15k</text></g><g class="xtick"><text text-anchor="middle" x="0" y="354" transform="translate(541.9,0)" style="font-family: 'Open Sans', verdana, arial, sans-serif; font-size: 12px; fill: rgb(68, 68, 68); fill-opacity: 1; visibility: visible; white-space: pre;" data-bb="28">20k</text></g></g><g class="yaxislayer" transform="translate(50,60)"><g class="ytick"><text text-anchor="end" x="-2" y="6" transform="translate(0,324.41)" style="font-family: 'Open Sans', verdana, arial, sans-serif; font-size: 12px; fill: rgb(68, 68, 68); fill-opacity: 1; visibility: visible; white-space: pre;">0</text></g><g class="ytick"><text text-anchor="end" x="-2" y="6" transform="translate(0,262.92)" style="font-family: 'Open Sans', verdana, arial, sans-serif; font-size: 12px; fill: rgb(68, 68, 68); fill-opacity: 1; visibility: visible; white-space: pre;">0.02</text></g><g class="ytick"><text text-anchor="end" x="-2" y="6" transform="translate(0,201.44)" style="font-family: 'Open Sans', verdana, arial, sans-serif; font-size: 12px; fill: rgb(68, 68, 68); fill-opacity: 1; visibility: visible; white-space: pre;">0.04</text></g><g class="ytick"><text text-anchor="end" x="-2" y="6" transform="translate(0,139.96)" style="font-family: 'Open Sans', verdana, arial, sans-serif; font-size: 12px; fill: rgb(68, 68, 68); fill-opacity: 1; visibility: visible; white-space: pre;">0.06</text></g><g class="ytick"><text text-anchor="end" x="-2" y="6" transform="translate(0,78.48)" style="font-family: 'Open Sans', verdana, arial, sans-serif; font-size: 12px; fill: rgb(68, 68, 68); fill-opacity: 1; visibility: visible; white-space: pre;">0.08</text></g><g class="ytick"><text text-anchor="end" x="-2" y="6" transform="translate(0,17)" style="font-family: 'Open Sans', verdana, arial, sans-serif; font-size: 12px; fill: rgb(68, 68, 68); fill-opacity: 1; visibility: visible; white-space: pre;">0.1</text></g></g><g class="overaxes"/></g></g><g class="ternarylayer"/><g class="geolayer"/><g class="layer-above"><g class="imagelayer"/><g class="shapelayer"/></g><g class="pielayer"/><g class="glimages"/><g class="infolayer"><g class="g-gtitle"><text class="gtitle" x="350" y="30" text-anchor="middle" style="font-family: 'Open Sans', verdana, arial, sans-serif; font-size: 17px; fill: rgb(68, 68, 68); opacity: 1; font-weight: normal; white-space: pre; visibility: visible;">Large Model Embedding Average Weight</text></g><g class="g-xtitle" data-bb="29" transform="translate(0,-6)"><text class="xtitle" x="350" y="452" text-anchor="middle" style="font-family: 'Open Sans', verdana, arial, sans-serif; font-size: 14px; fill: rgb(68, 68, 68); opacity: 1; font-weight: normal; white-space: pre; visibility: visible;">Training Steps</text></g><g class="g-ytitle" data-bb="30" transform="translate(3,0)"><text class="ytitle" transform="rotate(-90,12,230) translate(0, 0)" x="12" y="230" text-anchor="middle" style="font-family: 'Open Sans', verdana, arial, sans-serif; font-size: 14px; fill: rgb(68, 68, 68); opacity: 1; font-weight: normal; white-space: pre; visibility: visible;">Embedding Avg. Weight</text></g></g></svg>