<svg class="main-svg" xmlns="http://www.w3.org/2000/svg" xmlns:xlink="http://www.w3.org/1999/xlink" width="700" height="450"><rect x="0" y="0" width="700" height="450" style="fill: rgb(255, 255, 255); fill-opacity: 1;"/><defs id="defs-0a2212"><g class="clips"><clipPath class="axesclip" id="clip0a2212x"><rect x="50" y="0" width="600" height="450"/></clipPath><clipPath class="axesclip" id="clip0a2212y"><rect x="0" y="60" width="700" height="340"/></clipPath><clipPath class="axesclip" id="clip0a2212xy"><rect x="50" y="60" width="600" height="340"/></clipPath><clipPath class="plotclip" id="clip0a2212xyplot"><rect width="600" height="340"/></clipPath></g></defs><g class="bglayer"><rect class="bg" x="50" y="60" width="600" height="340" style="fill: rgb(255, 255, 255); fill-opacity: 1; stroke-width: 0px;"/></g><g class="layer-below"><g class="imagelayer"/><g class="shapelayer"/></g><g class="cartesianlayer"><g class="subplot xy"><g class="layer-subplot"><g class="shapelayer"/><g class="imagelayer"/></g><g class="gridlayer" transform="translate(50,60)"><path class="xgrid crisp" d="M0,0v340" transform="translate(135.43,0)" style="stroke: rgb(238, 238, 238); stroke-opacity: 1; stroke-width: 1px;"/><path class="xgrid crisp" d="M0,0v340" transform="translate(270.92,0)" style="stroke: rgb(238, 238, 238); stroke-opacity: 1; stroke-width: 1px;"/><path class="xgrid crisp" d="M0,0v340" transform="translate(406.41,0)" style="stroke: rgb(238, 238, 238); stroke-opacity: 1; stroke-width: 1px;"/><path class="xgrid crisp" d="M0,0v340" transform="translate(541.9,0)" style="stroke: rgb(238, 238, 238); stroke-opacity: 1; stroke-width: 1px;"/><path class="ygrid crisp" d="M0,0h600" transform="translate(0,335.52)" style="stroke: rgb(238, 238, 238); stroke-opacity: 1; stroke-width: 1px;"/><path class="ygrid crisp" d="M0,0h600" transform="translate(0,291.52)" style="stroke: rgb(238, 238, 238); stroke-opacity: 1; stroke-width: 1px;"/><path class="ygrid crisp" d="M0,0h600" transform="translate(0,247.51)" style="stroke: rgb(238, 238, 238); stroke-opacity: 1; stroke-width: 1px;"/><path class="ygrid crisp" d="M0,0h600" transform="translate(0,203.51)" style="stroke: rgb(238, 238, 238); stroke-opacity: 1; stroke-width: 1px;"/><path class="ygrid crisp" d="M0,0h600" transform="translate(0,159.51)" style="stroke: rgb(238, 238, 238); stroke-opacity: 1; stroke-width: 1px;"/><path class="ygrid crisp" d="M0,0h600" transform="translate(0,115.51)" style="stroke: rgb(238, 238, 238); stroke-opacity: 1; stroke-width: 1px;"/><path class="ygrid crisp" d="M0,0h600" transform="translate(0,71.5)" style="stroke: rgb(238, 238, 238); stroke-opacity: 1; stroke-width: 1px;"/><path class="ygrid crisp" d="M0,0h600" transform="translate(0,27.5)" style="stroke: rgb(238, 238, 238); stroke-opacity: 1; stroke-width: 1px;"/></g><g class="overgrid"/><g class="zerolinelayer" transform="translate(50,60)"/><g class="overzero"/><g class="plot" transform="translate(50, 60)" clip-path="url(#clip0a2212xyplot)"><g class="imagelayer"/><g class="maplayer"/><g class="barlayer"/><g class="carpetlayer"/><g class="boxlayer"/><g class="scatterlayer"><g class="trace scatter trace5d811b" style="stroke-miterlimit: 2; opacity: 1;"><path class="js-line" d="M0,17L2.71,221.45L5.42,206.92L6.56,220.73L9.27,221.35L11.98,220.04L14.69,209.18L17.4,236.27L20.11,222.21L22.82,216.12L25.53,207.66L28.24,220.2L30.95,226.66L36.37,204.32L39.08,224.39L41.78,218.03L44.49,215.74L47.2,213.51L49.91,222.78L52.62,215.64L55.33,221.31L58.04,216.79L60.75,227.61L63.46,230.28L66.17,215.58L68.88,212.41L71.59,229.04L74.3,258.35L77.01,225.55L79.72,207.2L82.43,222.36L85.14,222.23L87.85,210.56L90.56,214.36L93.27,229.78L95.98,234.91L98.69,231.98L101.4,225.95L104.11,241.51L106.82,222.3L109.53,257.13L112.24,236.36L114.95,231.83L117.66,254.89L120.37,226L123.08,238.94L125.79,234.2L128.5,268.3L131.21,269.4L133.92,230.88L136.63,279.26L139.34,221.88L142.05,240.84L144.76,240.66L147.47,233.48L150.18,238.16L152.89,230.44L155.6,237.72L158.31,229.58L163.73,247.96L166.43,246.81L169.14,218.47L171.85,249.81L174.56,243.98L177.27,233.31L179.98,223.97L182.69,235.55L185.4,235.64L188.11,264.89L190.82,240.27L193.53,229.94L196.24,243.56L198.95,266.21L201.66,205.83L204.37,255.15L207.08,242.38L209.79,209.82L212.5,232.78L215.21,226.29L220.63,242.63L223.34,243.66L226.05,235.22L228.76,230.05L231.47,270.74L234.18,246.09L236.89,239.76L239.6,244.8L242.31,226.3L245.02,305.96L247.73,220.12L250.44,242.84L253.15,244.11L255.86,242.22L258.57,244.88L261.28,235.37L263.99,236.12L266.7,271.1L272.12,222.06L274.83,215.61L277.54,245.88L280.25,231.39L282.96,233.69L285.67,220.78L288.38,291.09L291.08,279.64L293.79,243.13L296.5,223.23L299.21,211.81L301.92,247.82L304.63,240.12L307.34,249.28L310.05,274.11L312.76,225.88L315.47,269.48L318.18,211.9L320.89,253.36L323.6,236.13L326.31,243.21L329.02,241.54L331.73,237.38L334.44,217.3L337.15,260.8L339.86,243L342.57,237.46L345.28,236.03L347.99,241.69L350.7,240.19L353.41,265.56L356.12,237.88L358.83,250.26L361.54,247.95L364.25,232.42L366.96,234.86L369.67,252.67L372.38,224.21L375.09,246.62L377.8,227.02L380.51,251.57L383.22,241.1L385.93,234.47L388.64,242.37L391.35,253.88L394.06,271.17L396.77,235.54L399.48,221.44L402.19,226.9L404.9,243.65L407.61,225.49L410.32,223.35L413.03,240.18L415.73,241.45L418.44,224.39L421.15,238.77L423.86,295.68L426.57,273.19L429.28,254.04L431.99,241.94L437.41,312.13L440.12,240.45L442.83,247.31L445.54,323L448.25,253.56L450.96,231.15L453.67,229.08L456.38,232.36L459.09,247.61L461.8,241.4L464.51,220L467.22,243.52L469.93,320.95L472.64,232.23L475.35,316.39L478.06,272.95L480.77,217.54L483.48,237.62L486.19,238.01L488.9,254.99L491.61,240.43L494.32,245.31L497.03,249.82L499.74,224.96L502.45,263.88L505.16,238.61L507.87,242.73L510.58,221.45L513.29,211.89L516,291.88L518.71,247.76L521.42,243.12L524.13,282.71L526.84,239.57L529.55,242.14L532.26,278.06L534.97,244.29L537.68,235.7L540.38,255.76L543.09,223.06L545.8,245.12L548.51,244.29L551.22,250.52L553.93,212.58L556.64,245.94L559.35,242.77L562.06,234.17L564.77,248.2L567.48,238.54L570.19,216.48L572.9,251.95L575.61,240.27L578.32,234.66L581.03,223.27L589.16,291.82L591.87,267.3L594.58,240.84L597.29,236.72L600,245.81" style="vector-effect: non-scaling-stroke; fill: none; stroke: rgb(31, 119, 180); stroke-opacity: 1; stroke-width: 2px; opacity: 1;"/><g class="points"/></g></g></g><g class="overplot"/><path class="xlines crisp" transform="translate(50,60)" d="M-1,340.5h602" style="fill: none; stroke-width: 1px; stroke: rgb(0, 0, 0); stroke-opacity: 0;"/><path class="ylines crisp" transform="translate(50,60)" d="M-0.5,-1v341" stroke-width="1px" style="fill: none; stroke: rgb(0, 0, 0); stroke-opacity: 0;"/><g class="overlines"/><g class="xaxislayer" transform="translate(50,60)"><g class="xtick"><text text-anchor="middle" x="0" y="354" transform="translate(-0.05,0)" style="font-family: 'Open Sans', verdana, arial, sans-serif; font-size: 12px; fill: rgb(68, 68, 68); fill-opacity: 1; visibility: visible; white-space: pre;" data-bb="24">0</text></g><g class="xtick"><text text-anchor="middle" x="0" y="354" transform="translate(135.43,0)" style="font-family: 'Open Sans', verdana, arial, sans-serif; font-size: 12px; fill: rgb(68, 68, 68); fill-opacity: 1; visibility: visible; white-space: pre;" data-bb="25">5k</text></g><g class="xtick"><text text-anchor="middle" x="0" y="354" transform="translate(270.92,0)" style="font-family: 'Open Sans', verdana, arial, sans-serif; font-size: 12px; fill: rgb(68, 68, 68); fill-opacity: 1; visibility: visible; white-space: pre;" data-bb="26">10k</text></g><g class="xtick"><text text-anchor="middle" x="0" y="354" transform="translate(406.41,0)" style="font-family: 'Open Sans', verdana, arial, sans-serif; font-size: 12px; fill: rgb(68, 68, 68); fill-opacity: 1; visibility: visible; white-space: pre;" data-bb="27">15k</text></g><g class="xtick"><text text-anchor="middle" x="0" y="354" transform="translate(541.9,0)" style="font-family: 'Open Sans', verdana, arial, sans-serif; font-size: 12px; fill: rgb(68, 68, 68); fill-opacity: 1; visibility: visible; white-space: pre;" data-bb="28">20k</text></g></g><g class="yaxislayer" transform="translate(50,60)"><g class="ytick"><text text-anchor="end" x="-2" y="6" transform="translate(0,335.52)" style="font-family: 'Open Sans', verdana, arial, sans-serif; font-size: 12px; fill: rgb(68, 68, 68); fill-opacity: 1; visibility: visible; white-space: pre;">2</text></g><g class="ytick"><text text-anchor="end" x="-2" y="6" transform="translate(0,291.52)" style="font-family: 'Open Sans', verdana, arial, sans-serif; font-size: 12px; fill: rgb(68, 68, 68); fill-opacity: 1; visibility: visible; white-space: pre;">2.5</text></g><g class="ytick"><text text-anchor="end" x="-2" y="6" transform="translate(0,247.51)" style="font-family: 'Open Sans', verdana, arial, sans-serif; font-size: 12px; fill: rgb(68, 68, 68); fill-opacity: 1; visibility: visible; white-space: pre;">3</text></g><g class="ytick"><text text-anchor="end" x="-2" y="6" transform="translate(0,203.51)" style="font-family: 'Open Sans', verdana, arial, sans-serif; font-size: 12px; fill: rgb(68, 68, 68); fill-opacity: 1; visibility: visible; white-space: pre;">3.5</text></g><g class="ytick"><text text-anchor="end" x="-2" y="6" transform="translate(0,159.51)" style="font-family: 'Open Sans', verdana, arial, sans-serif; font-size: 12px; fill: rgb(68, 68, 68); fill-opacity: 1; visibility: visible; white-space: pre;">4</text></g><g class="ytick"><text text-anchor="end" x="-2" y="6" transform="translate(0,115.51)" style="font-family: 'Open Sans', verdana, arial, sans-serif; font-size: 12px; fill: rgb(68, 68, 68); fill-opacity: 1; visibility: visible; white-space: pre;">4.5</text></g><g class="ytick"><text text-anchor="end" x="-2" y="6" transform="translate(0,71.5)" style="font-family: 'Open Sans', verdana, arial, sans-serif; font-size: 12px; fill: rgb(68, 68, 68); fill-opacity: 1; visibility: visible; white-space: pre;">5</text></g><g class="ytick"><text text-anchor="end" x="-2" y="6" transform="translate(0,27.5)" style="font-family: 'Open Sans', verdana, arial, sans-serif; font-size: 12px; fill: rgb(68, 68, 68); fill-opacity: 1; visibility: visible; white-space: pre;">5.5</text></g></g><g class="overaxes"/></g></g><g class="ternarylayer"/><g class="geolayer"/><g class="layer-above"><g class="imagelayer"/><g class="shapelayer"/></g><g class="pielayer"/><g class="glimages"/><g class="infolayer"><g class="g-gtitle"><text class="gtitle" x="350" y="30" text-anchor="middle" style="font-family: 'Open Sans', verdana, arial, sans-serif; font-size: 17px; fill: rgb(68, 68, 68); opacity: 1; font-weight: normal; white-space: pre; visibility: visible;">Large Model Training Loss</text></g><g class="g-xtitle" data-bb="29" transform="translate(0,-6)"><text class="xtitle" x="350" y="452" text-anchor="middle" style="font-family: 'Open Sans', verdana, arial, sans-serif; font-size: 14px; fill: rgb(68, 68, 68); opacity: 1; font-weight: normal; white-space: pre; visibility: visible;">Training Steps</text></g><g class="g-ytitle" data-bb="30" transform="translate(3,0)"><text class="ytitle" transform="rotate(-90,12,230) translate(0, 0)" x="12" y="230" text-anchor="middle" style="font-family: 'Open Sans', verdana, arial, sans-serif; font-size: 14px; fill: rgb(68, 68, 68); opacity: 1; font-weight: normal; white-space: pre; visibility: visible;">Loss</text></g></g></svg>