<svg class="main-svg" xmlns="http://www.w3.org/2000/svg" xmlns:xlink="http://www.w3.org/1999/xlink" width="700" height="450"><rect x="0" y="0" width="700" height="450" style="fill: rgb(255, 255, 255); fill-opacity: 1;"/><defs id="defs-3ed706"><g class="clips"><clipPath class="axesclip" id="clip3ed706x"><rect x="50" y="0" width="600" height="450"/></clipPath><clipPath class="axesclip" id="clip3ed706y"><rect x="0" y="60" width="700" height="340"/></clipPath><clipPath class="axesclip" id="clip3ed706xy"><rect x="50" y="60" width="600" height="340"/></clipPath><clipPath class="plotclip" id="clip3ed706xyplot"><rect width="600" height="340"/></clipPath></g></defs><g class="bglayer"><rect class="bg" x="50" y="60" width="600" height="340" style="fill: rgb(255, 255, 255); fill-opacity: 1; stroke-width: 0px;"/></g><g class="layer-below"><g class="imagelayer"/><g class="shapelayer"/></g><g class="cartesianlayer"><g class="subplot xy"><g class="layer-subplot"><g class="shapelayer"/><g class="imagelayer"/></g><g class="gridlayer" transform="translate(50,60)"><path class="xgrid crisp" d="M0,0v340" transform="translate(88.15,0)" style="stroke: rgb(238, 238, 238); stroke-opacity: 1; stroke-width: 1px;"/><path class="xgrid crisp" d="M0,0v340" transform="translate(176.38,0)" style="stroke: rgb(238, 238, 238); stroke-opacity: 1; stroke-width: 1px;"/><path class="xgrid crisp" d="M0,0v340" transform="translate(264.62,0)" style="stroke: rgb(238, 238, 238); stroke-opacity: 1; stroke-width: 1px;"/><path class="xgrid crisp" d="M0,0v340" transform="translate(352.85,0)" style="stroke: rgb(238, 238, 238); stroke-opacity: 1; stroke-width: 1px;"/><path class="xgrid crisp" d="M0,0v340" transform="translate(441.09,0)" style="stroke: rgb(238, 238, 238); stroke-opacity: 1; stroke-width: 1px;"/><path class="xgrid crisp" d="M0,0v340" transform="translate(529.32,0)" style="stroke: rgb(238, 238, 238); stroke-opacity: 1; stroke-width: 1px;"/><path class="ygrid crisp" d="M0,0h600" transform="translate(0,309.94)" style="stroke: rgb(238, 238, 238); stroke-opacity: 1; stroke-width: 1px;"/><path class="ygrid crisp" d="M0,0h600" transform="translate(0,269.49)" style="stroke: rgb(238, 238, 238); stroke-opacity: 1; stroke-width: 1px;"/><path class="ygrid crisp" d="M0,0h600" transform="translate(0,229.03)" style="stroke: rgb(238, 238, 238); stroke-opacity: 1; stroke-width: 1px;"/><path class="ygrid crisp" d="M0,0h600" transform="translate(0,188.58)" style="stroke: rgb(238, 238, 238); stroke-opacity: 1; stroke-width: 1px;"/><path class="ygrid crisp" d="M0,0h600" transform="translate(0,148.12)" style="stroke: rgb(238, 238, 238); stroke-opacity: 1; stroke-width: 1px;"/><path class="ygrid crisp" d="M0,0h600" transform="translate(0,107.67)" style="stroke: rgb(238, 238, 238); stroke-opacity: 1; stroke-width: 1px;"/><path class="ygrid crisp" d="M0,0h600" transform="translate(0,67.21)" style="stroke: rgb(238, 238, 238); stroke-opacity: 1; stroke-width: 1px;"/><path class="ygrid crisp" d="M0,0h600" transform="translate(0,26.76)" style="stroke: rgb(238, 238, 238); stroke-opacity: 1; stroke-width: 1px;"/></g><g class="overgrid"/><g class="zerolinelayer" transform="translate(50,60)"/><g class="overzero"/><g class="plot" transform="translate(50, 60)" clip-path="url(#clip3ed706xyplot)"><g class="imagelayer"/><g class="maplayer"/><g class="barlayer"/><g class="carpetlayer"/><g class="boxlayer"/><g class="scatterlayer"><g class="trace scatter trace5fce73" style="stroke-miterlimit: 2; opacity: 1;"><path class="js-line" d="M0,17L8.82,184.23L17.65,199.38L26.47,197.79L35.29,203.58L44.12,209.23L52.94,201.6L61.76,229.66L70.59,227.92L79.41,222.23L88.24,245.99L97.06,247.71L105.88,241.15L114.71,262.39L123.53,277.92L132.35,259.23L141.18,253.25L150,281.72L158.82,273.81L167.65,255.31L176.47,266.66L185.29,262.54L194.12,261.83L202.94,269.66L211.76,296.22L220.59,263.36L229.41,265.48L238.24,293.64L247.06,271.63L255.88,280.83L264.71,271.16L273.53,315.08L282.35,280.06L291.18,297.34L300,298.04L308.82,296.76L317.65,281.91L326.47,323L335.29,290.57L344.12,277.8L352.94,285.82L361.76,282.63L370.59,283.9L379.41,291.6L388.24,278.58L397.06,278.36L405.88,270.43L414.71,276.88L423.53,277.81L432.35,281.36L441.18,298.17L450,276.24L458.82,295.33L467.65,293.16L476.47,270.11L485.29,310.98L494.12,317.05L502.94,285.12L511.76,291.95L520.59,270.02L529.41,283.82L538.24,290.52L547.06,292.16L555.88,262.25L564.71,291.35L573.53,297.63L582.35,294.52L591.18,307.61L600,272.32" style="vector-effect: non-scaling-stroke; fill: none; stroke: rgb(31, 119, 180); stroke-opacity: 1; stroke-width: 2px; opacity: 1;"/><g class="points"/></g></g></g><g class="overplot"/><path class="xlines crisp" transform="translate(50,60)" d="M-1,340.5h602" style="fill: none; stroke-width: 1px; stroke: rgb(0, 0, 0); stroke-opacity: 0;"/><path class="ylines crisp" transform="translate(50,60)" d="M-0.5,-1v341" stroke-width="1px" style="fill: none; stroke: rgb(0, 0, 0); stroke-opacity: 0;"/><g class="overlines"/><g class="xaxislayer" transform="translate(50,60)"><g class="xtick"><text text-anchor="middle" x="0" y="354" transform="translate(88.15,0)" style="font-family: 'Open Sans', verdana, arial, sans-serif; font-size: 12px; fill: rgb(68, 68, 68); fill-opacity: 1; visibility: visible; white-space: pre;" data-bb="26">1000</text></g><g class="xtick"><text text-anchor="middle" x="0" y="354" transform="translate(176.38,0)" style="font-family: 'Open Sans', verdana, arial, sans-serif; font-size: 12px; fill: rgb(68, 68, 68); fill-opacity: 1; visibility: visible; white-space: pre;" data-bb="27">2000</text></g><g class="xtick"><text text-anchor="middle" x="0" y="354" transform="translate(264.62,0)" style="font-family: 'Open Sans', verdana, arial, sans-serif; font-size: 12px; fill: rgb(68, 68, 68); fill-opacity: 1; visibility: visible; white-space: pre;" data-bb="28">3000</text></g><g class="xtick"><text text-anchor="middle" x="0" y="354" transform="translate(352.85,0)" style="font-family: 'Open Sans', verdana, arial, sans-serif; font-size: 12px; fill: rgb(68, 68, 68); fill-opacity: 1; visibility: visible; white-space: pre;" data-bb="29">4000</text></g><g class="xtick"><text text-anchor="middle" x="0" y="354" transform="translate(441.09,0)" style="font-family: 'Open Sans', verdana, arial, sans-serif; font-size: 12px; fill: rgb(68, 68, 68); fill-opacity: 1; visibility: visible; white-space: pre;" data-bb="30">5000</text></g><g class="xtick"><text text-anchor="middle" x="0" y="354" transform="translate(529.32,0)" style="font-family: 'Open Sans', verdana, arial, sans-serif; font-size: 12px; fill: rgb(68, 68, 68); fill-opacity: 1; visibility: visible; white-space: pre;" data-bb="31">6000</text></g></g><g class="yaxislayer" transform="translate(50,60)"><g class="ytick"><text text-anchor="end" x="-2" y="6" transform="translate(0,309.94)" style="font-family: 'Open Sans', verdana, arial, sans-serif; font-size: 12px; fill: rgb(68, 68, 68); fill-opacity: 1; visibility: visible; white-space: pre;">2</text></g><g class="ytick"><text text-anchor="end" x="-2" y="6" transform="translate(0,269.49)" style="font-family: 'Open Sans', verdana, arial, sans-serif; font-size: 12px; fill: rgb(68, 68, 68); fill-opacity: 1; visibility: visible; white-space: pre;">2.5</text></g><g class="ytick"><text text-anchor="end" x="-2" y="6" transform="translate(0,229.03)" style="font-family: 'Open Sans', verdana, arial, sans-serif; font-size: 12px; fill: rgb(68, 68, 68); fill-opacity: 1; visibility: visible; white-space: pre;">3</text></g><g class="ytick"><text text-anchor="end" x="-2" y="6" transform="translate(0,188.58)" style="font-family: 'Open Sans', verdana, arial, sans-serif; font-size: 12px; fill: rgb(68, 68, 68); fill-opacity: 1; visibility: visible; white-space: pre;">3.5</text></g><g class="ytick"><text text-anchor="end" x="-2" y="6" transform="translate(0,148.12)" style="font-family: 'Open Sans', verdana, arial, sans-serif; font-size: 12px; fill: rgb(68, 68, 68); fill-opacity: 1; visibility: visible; white-space: pre;">4</text></g><g class="ytick"><text text-anchor="end" x="-2" y="6" transform="translate(0,107.67)" style="font-family: 'Open Sans', verdana, arial, sans-serif; font-size: 12px; fill: rgb(68, 68, 68); fill-opacity: 1; visibility: visible; white-space: pre;">4.5</text></g><g class="ytick"><text text-anchor="end" x="-2" y="6" transform="translate(0,67.21)" style="font-family: 'Open Sans', verdana, arial, sans-serif; font-size: 12px; fill: rgb(68, 68, 68); fill-opacity: 1; visibility: visible; white-space: pre;">5</text></g><g class="ytick"><text text-anchor="end" x="-2" y="6" transform="translate(0,26.76)" style="font-family: 'Open Sans', verdana, arial, sans-serif; font-size: 12px; fill: rgb(68, 68, 68); fill-opacity: 1; visibility: visible; white-space: pre;">5.5</text></g></g><g class="overaxes"/></g></g><g class="ternarylayer"/><g class="geolayer"/><g class="layer-above"><g class="imagelayer"/><g class="shapelayer"/></g><g class="pielayer"/><g class="glimages"/><g class="infolayer"><g class="g-gtitle"><text class="gtitle" x="350" y="30" text-anchor="middle" style="font-family: 'Open Sans', verdana, arial, sans-serif; font-size: 17px; fill: rgb(68, 68, 68); opacity: 1; font-weight: normal; white-space: pre; visibility: visible;">Medium Model Training Loss</text></g><g class="g-xtitle" data-bb="32" transform="translate(0,-6)"><text class="xtitle" x="350" y="452" text-anchor="middle" style="font-family: 'Open Sans', verdana, arial, sans-serif; font-size: 14px; fill: rgb(68, 68, 68); opacity: 1; font-weight: normal; white-space: pre; visibility: visible;">Training Steps</text></g><g class="g-ytitle" data-bb="33" transform="translate(3,0)"><text class="ytitle" transform="rotate(-90,12,230) translate(0, 0)" x="12" y="230" text-anchor="middle" style="font-family: 'Open Sans', verdana, arial, sans-serif; font-size: 14px; fill: rgb(68, 68, 68); opacity: 1; font-weight: normal; white-space: pre; visibility: visible;">Loss</text></g></g></svg>