<?xml version="1.0" encoding="UTF-8" standalone="no"?>
<svg
   xmlns:dc="http://purl.org/dc/elements/1.1/"
   xmlns:cc="http://creativecommons.org/ns#"
   xmlns:rdf="http://www.w3.org/1999/02/22-rdf-syntax-ns#"
   xmlns:svg="http://www.w3.org/2000/svg"
   xmlns="http://www.w3.org/2000/svg"
   xmlns:sodipodi="http://sodipodi.sourceforge.net/DTD/sodipodi-0.dtd"
   xmlns:inkscape="http://www.inkscape.org/namespaces/inkscape"
   width="56.6pt"
   height="72.72pt"
   viewBox="0 0 56.6 72.72"
   version="1.1"
   id="svg2"
   inkscape:version="0.91 r13725"
   sodipodi:docname="ShieldBlack.svg">
  <metadata
     id="metadata50">
    <rdf:RDF>
      <cc:Work
         rdf:about="">
        <dc:format>image/svg+xml</dc:format>
        <dc:type
           rdf:resource="http://purl.org/dc/dcmitype/StillImage" />
        <dc:title></dc:title>
      </cc:Work>
    </rdf:RDF>
  </metadata>
  <sodipodi:namedview
     pagecolor="#ffffff"
     bordercolor="#666666"
     borderopacity="1"
     objecttolerance="10"
     gridtolerance="10"
     guidetolerance="10"
     inkscape:pageopacity="0"
     inkscape:pageshadow="2"
     inkscape:window-width="1855"
     inkscape:window-height="1056"
     id="namedview48"
     showgrid="false"
     inkscape:zoom="7.343331"
     inkscape:cx="29.283862"
     inkscape:cy="42.189761"
     inkscape:window-x="65"
     inkscape:window-y="24"
     inkscape:window-maximized="1"
     inkscape:current-layer="svg2" />
  <defs
     id="defs4">
    <clipPath
       id="clip1">
      <path
         d="M 0 0 L 56.601562 0 L 56.601562 72.71875 L 0 72.71875 Z M 0 0 "
         id="path7" />
    </clipPath>
  </defs>
  <g
     id="surface4977">
    <path
       style=" stroke:none;fill-rule:nonzero;fill:rgb(13.729858%,12.159729%,12.548828%);fill-opacity:1;"
       d="M 22.058594 16.050781 C 21.871094 16.066406 21.753906 16.164062 21.699219 16.289062 L 20.9375 17.980469 C 20.9375 17.980469 20.902344 18.007812 20.878906 18.007812 C 20.855469 18.007812 20.828125 17.980469 20.808594 17.925781 C 20.789062 17.867188 20.695312 17.628906 20.496094 17.167969 L 20.253906 16.617188 C 20.164062 16.414062 20.09375 16.277344 20.070312 16.238281 C 19.984375 16.082031 19.871094 16.070312 19.753906 16.050781 C 19.738281 16.03125 19.738281 16.015625 19.738281 16 C 19.738281 15.984375 19.738281 15.972656 19.746094 15.953125 L 19.871094 15.953125 C 20.015625 15.953125 20.136719 15.957031 20.242188 15.957031 C 20.367188 15.957031 20.578125 15.945312 20.714844 15.945312 L 20.796875 15.945312 C 20.8125 15.953125 20.816406 15.980469 20.816406 15.992188 C 20.816406 16 20.816406 16.03125 20.808594 16.046875 C 20.714844 16.054688 20.507812 16.050781 20.507812 16.179688 C 20.507812 16.207031 20.511719 16.257812 20.527344 16.292969 L 21.027344 17.480469 L 21.441406 16.496094 C 21.492188 16.382812 21.496094 16.289062 21.496094 16.238281 C 21.496094 16.125 21.417969 16.078125 21.210938 16.050781 C 21.207031 16.039062 21.199219 16.019531 21.199219 16.003906 C 21.199219 15.984375 21.207031 15.957031 21.210938 15.945312 L 21.273438 15.945312 C 21.363281 15.945312 21.457031 15.957031 21.664062 15.957031 C 21.703125 15.957031 21.84375 15.953125 21.914062 15.953125 L 22.058594 15.953125 C 22.066406 15.96875 22.078125 15.980469 22.078125 15.996094 C 22.078125 16.007812 22.066406 16.039062 22.058594 16.050781 "
       id="path10" />
    <path
       style=" stroke:none;fill-rule:nonzero;fill:rgb(13.729858%,12.159729%,12.548828%);fill-opacity:1;"
       d="M 24.175781 17.949219 C 23.570312 17.949219 23.238281 17.933594 23.15625 17.933594 C 23.09375 17.933594 22.945312 17.925781 22.867188 17.925781 C 22.785156 17.925781 22.589844 17.941406 22.378906 17.941406 L 22.257812 17.9375 C 22.246094 17.921875 22.246094 17.910156 22.246094 17.890625 C 22.246094 17.875 22.246094 17.851562 22.253906 17.835938 C 22.414062 17.824219 22.53125 17.796875 22.558594 17.769531 C 22.589844 17.730469 22.613281 17.644531 22.625 17.464844 C 22.625 17.371094 22.628906 17.269531 22.628906 17.164062 C 22.628906 17.011719 22.625 16.828125 22.625 16.601562 C 22.625 16.445312 22.625 16.355469 22.625 16.289062 C 22.617188 16.070312 22.511719 16.070312 22.285156 16.042969 C 22.28125 16.023438 22.277344 16.003906 22.277344 15.992188 C 22.277344 15.980469 22.28125 15.945312 22.292969 15.941406 L 22.40625 15.941406 C 22.480469 15.941406 22.679688 15.945312 23.058594 15.945312 C 23.40625 15.945312 23.746094 15.953125 23.820312 15.953125 C 23.863281 15.953125 24 15.953125 24.027344 15.953125 C 24.074219 15.953125 24.09375 15.957031 24.09375 16 L 24.121094 16.453125 C 24.09375 16.46875 24.089844 16.472656 24.066406 16.472656 C 24.046875 16.472656 24.03125 16.472656 24.019531 16.46875 C 23.882812 16.242188 23.820312 16.195312 23.71875 16.121094 C 23.679688 16.09375 23.625 16.078125 23.539062 16.070312 C 23.511719 16.070312 23.445312 16.066406 23.273438 16.066406 C 23.132812 16.066406 23.0625 16.070312 23.042969 16.070312 C 23.023438 16.070312 23.027344 16.070312 23.019531 16.148438 C 23.011719 16.195312 23.007812 16.289062 23.007812 16.550781 L 23.007812 16.8125 L 23.078125 16.8125 C 23.164062 16.8125 23.253906 16.800781 23.304688 16.789062 C 23.382812 16.765625 23.46875 16.707031 23.507812 16.644531 C 23.527344 16.621094 23.546875 16.511719 23.554688 16.476562 C 23.570312 16.46875 23.59375 16.464844 23.617188 16.464844 C 23.640625 16.464844 23.65625 16.46875 23.671875 16.480469 C 23.664062 16.5625 23.652344 16.714844 23.652344 16.90625 C 23.652344 17.003906 23.660156 17.21875 23.660156 17.304688 C 23.644531 17.320312 23.632812 17.324219 23.605469 17.324219 C 23.59375 17.324219 23.566406 17.320312 23.550781 17.316406 C 23.53125 17.144531 23.503906 17.027344 23.359375 16.96875 C 23.28125 16.9375 23.21875 16.925781 23.136719 16.925781 C 23.09375 16.925781 23.042969 16.929688 23.003906 16.9375 L 23.003906 17.460938 C 23.003906 17.578125 23.011719 17.652344 23.03125 17.695312 C 23.042969 17.730469 23.09375 17.800781 23.152344 17.808594 C 23.179688 17.8125 23.230469 17.820312 23.335938 17.820312 L 23.625 17.820312 C 23.699219 17.820312 23.804688 17.8125 23.84375 17.789062 C 23.910156 17.742188 24.097656 17.542969 24.160156 17.359375 C 24.191406 17.347656 24.203125 17.347656 24.222656 17.347656 C 24.238281 17.347656 24.257812 17.351562 24.28125 17.363281 L 24.28125 17.890625 C 24.28125 17.941406 24.25 17.949219 24.175781 17.949219 "
       id="path12" />
    <path
       style=" stroke:none;fill-rule:nonzero;fill:rgb(13.729858%,12.159729%,12.548828%);fill-opacity:1;"
       d="M 26.585938 16.578125 C 26.570312 16.578125 26.550781 16.570312 26.527344 16.570312 C 26.480469 16.445312 26.425781 16.332031 26.382812 16.273438 C 26.296875 16.171875 26.21875 16.105469 26.011719 16.078125 C 25.964844 16.078125 25.851562 16.078125 25.816406 16.078125 L 25.808594 16.957031 C 25.808594 17.097656 25.808594 17.261719 25.816406 17.566406 C 25.820312 17.800781 25.921875 17.800781 26.164062 17.828125 C 26.175781 17.855469 26.179688 17.871094 26.179688 17.886719 C 26.179688 17.902344 26.175781 17.921875 26.167969 17.9375 L 26.078125 17.9375 C 25.941406 17.9375 25.660156 17.925781 25.574219 17.925781 C 25.515625 17.925781 25.210938 17.941406 25.066406 17.941406 C 25.050781 17.921875 25.046875 17.921875 25.046875 17.886719 C 25.046875 17.871094 25.050781 17.855469 25.058594 17.835938 C 25.378906 17.8125 25.410156 17.75 25.421875 17.648438 C 25.429688 17.585938 25.429688 17.320312 25.429688 17.050781 L 25.429688 16.320312 C 25.429688 16.230469 25.425781 16.136719 25.410156 16.078125 C 25.351562 16.078125 25.15625 16.078125 25.101562 16.097656 C 24.941406 16.15625 24.824219 16.292969 24.699219 16.539062 C 24.683594 16.542969 24.660156 16.542969 24.648438 16.542969 C 24.628906 16.542969 24.609375 16.539062 24.601562 16.523438 L 24.601562 16.007812 C 24.601562 15.964844 24.605469 15.953125 24.660156 15.953125 C 24.707031 15.953125 24.78125 15.953125 24.878906 15.953125 C 24.949219 15.953125 25.242188 15.957031 25.605469 15.957031 C 26.089844 15.957031 26.445312 15.945312 26.539062 15.945312 C 26.585938 15.945312 26.617188 15.945312 26.636719 15.964844 C 26.640625 15.972656 26.636719 16.007812 26.636719 16.039062 L 26.636719 16.550781 C 26.625 16.570312 26.601562 16.578125 26.585938 16.578125 "
       id="path14" />
    <path
       style=" stroke:none;fill-rule:nonzero;fill:rgb(13.729858%,12.159729%,12.548828%);fill-opacity:1;"
       d="M 21.960938 19.710938 C 21.941406 19.710938 21.929688 19.707031 21.902344 19.707031 C 21.859375 19.582031 21.804688 19.46875 21.753906 19.410156 C 21.671875 19.308594 21.589844 19.242188 21.382812 19.214844 C 21.335938 19.210938 21.222656 19.210938 21.1875 19.210938 L 21.183594 20.09375 C 21.183594 20.234375 21.183594 20.398438 21.1875 20.703125 C 21.191406 20.9375 21.296875 20.9375 21.539062 20.964844 C 21.554688 20.992188 21.554688 21.007812 21.554688 21.023438 C 21.554688 21.039062 21.554688 21.054688 21.542969 21.074219 L 21.457031 21.074219 C 21.3125 21.074219 21.035156 21.0625 20.953125 21.0625 C 20.890625 21.0625 20.585938 21.078125 20.4375 21.078125 C 20.425781 21.054688 20.421875 21.054688 20.421875 21.023438 C 20.421875 21.007812 20.425781 20.992188 20.433594 20.96875 C 20.753906 20.949219 20.785156 20.886719 20.796875 20.785156 C 20.800781 20.71875 20.800781 20.457031 20.800781 20.1875 L 20.800781 19.457031 C 20.800781 19.367188 20.800781 19.273438 20.789062 19.210938 C 20.730469 19.210938 20.53125 19.210938 20.472656 19.234375 C 20.3125 19.292969 20.203125 19.429688 20.078125 19.671875 C 20.058594 19.679688 20.035156 19.679688 20.019531 19.679688 C 20.003906 19.679688 19.988281 19.671875 19.972656 19.660156 L 19.972656 19.144531 C 19.972656 19.097656 19.984375 19.085938 20.035156 19.085938 C 20.085938 19.085938 20.15625 19.089844 20.253906 19.089844 C 20.328125 19.089844 20.617188 19.09375 20.984375 19.09375 C 21.460938 19.09375 21.824219 19.082031 21.910156 19.082031 C 21.960938 19.082031 21.992188 19.082031 22.007812 19.097656 C 22.015625 19.109375 22.011719 19.144531 22.011719 19.171875 L 22.011719 19.6875 C 21.996094 19.707031 21.980469 19.710938 21.960938 19.710938 "
       id="path16" />
    <path
       style=" stroke:none;fill-rule:nonzero;fill:rgb(13.729858%,12.159729%,12.548828%);fill-opacity:1;"
       d="M 24.25 21.082031 C 23.648438 21.082031 23.3125 21.066406 23.234375 21.066406 C 23.167969 21.066406 23.023438 21.0625 22.945312 21.0625 C 22.863281 21.0625 22.664062 21.078125 22.457031 21.078125 L 22.335938 21.074219 C 22.328125 21.054688 22.324219 21.042969 22.324219 21.027344 C 22.324219 21.011719 22.324219 20.988281 22.332031 20.96875 C 22.492188 20.957031 22.609375 20.929688 22.632812 20.90625 C 22.667969 20.867188 22.6875 20.78125 22.699219 20.601562 C 22.703125 20.507812 22.707031 20.40625 22.707031 20.300781 C 22.707031 20.148438 22.703125 19.964844 22.703125 19.738281 C 22.703125 19.582031 22.699219 19.492188 22.699219 19.425781 C 22.695312 19.207031 22.589844 19.207031 22.363281 19.179688 C 22.355469 19.160156 22.351562 19.140625 22.351562 19.125 C 22.351562 19.113281 22.359375 19.082031 22.371094 19.074219 L 22.480469 19.074219 C 22.558594 19.074219 22.753906 19.082031 23.132812 19.082031 C 23.484375 19.082031 23.820312 19.085938 23.898438 19.085938 C 23.941406 19.085938 24.078125 19.089844 24.101562 19.089844 C 24.152344 19.089844 24.171875 19.09375 24.171875 19.136719 L 24.195312 19.589844 C 24.171875 19.605469 24.160156 19.609375 24.140625 19.609375 C 24.125 19.609375 24.109375 19.609375 24.09375 19.605469 C 23.964844 19.378906 23.898438 19.332031 23.789062 19.257812 C 23.753906 19.230469 23.703125 19.210938 23.617188 19.207031 C 23.59375 19.207031 23.523438 19.199219 23.347656 19.199219 C 23.210938 19.199219 23.136719 19.207031 23.125 19.207031 C 23.09375 19.207031 23.101562 19.207031 23.09375 19.285156 C 23.09375 19.332031 23.085938 19.421875 23.085938 19.6875 L 23.085938 19.945312 L 23.152344 19.945312 C 23.242188 19.945312 23.332031 19.9375 23.378906 19.921875 C 23.460938 19.902344 23.539062 19.84375 23.585938 19.78125 C 23.601562 19.757812 23.625 19.648438 23.628906 19.613281 C 23.648438 19.605469 23.671875 19.597656 23.695312 19.597656 C 23.71875 19.597656 23.734375 19.605469 23.75 19.617188 C 23.746094 19.695312 23.726562 19.847656 23.726562 20.042969 C 23.726562 20.140625 23.738281 20.355469 23.738281 20.441406 C 23.71875 20.457031 23.710938 20.457031 23.683594 20.457031 C 23.664062 20.457031 23.644531 20.457031 23.625 20.453125 C 23.605469 20.28125 23.582031 20.164062 23.433594 20.105469 C 23.355469 20.070312 23.289062 20.0625 23.21875 20.0625 C 23.175781 20.0625 23.125 20.066406 23.082031 20.070312 L 23.082031 20.59375 C 23.082031 20.714844 23.09375 20.789062 23.105469 20.832031 C 23.125 20.867188 23.167969 20.9375 23.226562 20.941406 C 23.253906 20.949219 23.308594 20.957031 23.410156 20.957031 L 23.703125 20.957031 C 23.777344 20.957031 23.878906 20.949219 23.914062 20.925781 C 23.988281 20.878906 24.175781 20.679688 24.238281 20.496094 C 24.265625 20.484375 24.28125 20.484375 24.300781 20.484375 C 24.316406 20.484375 24.339844 20.488281 24.355469 20.496094 L 24.355469 21.027344 C 24.355469 21.078125 24.324219 21.082031 24.25 21.082031 "
       id="path18" />
    <path
       style=" stroke:none;fill-rule:nonzero;fill:rgb(13.729858%,12.159729%,12.548828%);fill-opacity:1;"
       d="M 25.65625 21.128906 C 25.492188 21.128906 25.304688 21.0625 25.195312 21.007812 C 25.175781 21 25.140625 20.992188 25.121094 20.992188 C 25.097656 20.992188 25.035156 21.019531 24.972656 21.066406 C 24.925781 21.066406 24.871094 21.042969 24.855469 21.007812 C 24.855469 20.964844 24.894531 20.839844 24.894531 20.761719 C 24.894531 20.714844 24.878906 20.492188 24.875 20.4375 C 24.894531 20.410156 24.929688 20.394531 24.964844 20.394531 C 24.976562 20.394531 24.984375 20.394531 24.996094 20.398438 C 25.035156 20.480469 25.121094 20.695312 25.179688 20.785156 C 25.304688 20.929688 25.492188 20.996094 25.625 20.996094 C 25.773438 20.996094 25.886719 20.964844 25.949219 20.898438 C 26.042969 20.8125 26.058594 20.753906 26.058594 20.65625 C 26.058594 20.582031 26.046875 20.523438 26.003906 20.476562 C 25.953125 20.410156 25.910156 20.382812 25.796875 20.328125 C 25.710938 20.285156 25.398438 20.207031 25.285156 20.148438 C 25.148438 20.082031 25.078125 20.027344 25.011719 19.953125 C 24.925781 19.84375 24.894531 19.703125 24.894531 19.585938 C 24.894531 19.265625 25.148438 19.027344 25.511719 19.027344 C 25.644531 19.027344 25.828125 19.039062 25.984375 19.164062 C 26.019531 19.125 26.058594 19.085938 26.101562 19.050781 C 26.164062 19.050781 26.203125 19.082031 26.210938 19.105469 C 26.203125 19.152344 26.175781 19.277344 26.175781 19.378906 C 26.175781 19.429688 26.210938 19.640625 26.210938 19.671875 C 26.183594 19.683594 26.164062 19.703125 26.128906 19.703125 C 26.121094 19.703125 26.105469 19.695312 26.09375 19.691406 C 26.039062 19.59375 25.984375 19.433594 25.925781 19.34375 C 25.835938 19.21875 25.703125 19.171875 25.527344 19.171875 C 25.328125 19.171875 25.167969 19.296875 25.167969 19.46875 C 25.167969 19.636719 25.300781 19.714844 25.410156 19.765625 C 25.496094 19.796875 25.597656 19.835938 25.714844 19.871094 C 25.859375 19.921875 25.972656 19.964844 26.03125 19.996094 C 26.265625 20.113281 26.363281 20.285156 26.363281 20.523438 C 26.363281 20.890625 26.027344 21.128906 25.65625 21.128906 "
       id="path20" />
    <path
       style=" stroke:none;fill-rule:nonzero;fill:rgb(13.729858%,12.159729%,12.548828%);fill-opacity:1;"
       d="M 22.769531 24.222656 C 22.160156 24.222656 21.832031 24.207031 21.746094 24.207031 C 21.683594 24.207031 21.535156 24.203125 21.460938 24.203125 C 21.378906 24.203125 21.183594 24.21875 20.96875 24.21875 L 20.847656 24.210938 C 20.839844 24.195312 20.839844 24.183594 20.839844 24.167969 C 20.839844 24.152344 20.839844 24.128906 20.84375 24.109375 C 21.007812 24.097656 21.121094 24.070312 21.152344 24.046875 C 21.183594 24.007812 21.207031 23.921875 21.214844 23.742188 C 21.214844 23.648438 21.21875 23.546875 21.21875 23.441406 C 21.21875 23.289062 21.214844 23.105469 21.214844 22.878906 C 21.214844 22.722656 21.214844 22.632812 21.214844 22.566406 C 21.210938 22.347656 21.105469 22.347656 20.878906 22.320312 C 20.871094 22.300781 20.867188 22.28125 20.867188 22.265625 C 20.867188 22.253906 20.871094 22.222656 20.886719 22.214844 L 20.996094 22.214844 C 21.074219 22.214844 21.273438 22.222656 21.652344 22.222656 C 21.996094 22.222656 22.335938 22.226562 22.410156 22.226562 C 22.457031 22.226562 22.589844 22.230469 22.617188 22.230469 C 22.664062 22.230469 22.683594 22.234375 22.683594 22.277344 L 22.710938 22.730469 C 22.683594 22.746094 22.679688 22.75 22.65625 22.75 C 22.636719 22.75 22.625 22.75 22.609375 22.746094 C 22.476562 22.519531 22.410156 22.472656 22.308594 22.398438 C 22.273438 22.371094 22.214844 22.351562 22.132812 22.347656 C 22.105469 22.347656 22.035156 22.339844 21.863281 22.339844 C 21.722656 22.339844 21.65625 22.347656 21.636719 22.347656 C 21.613281 22.347656 21.617188 22.347656 21.609375 22.425781 C 21.605469 22.472656 21.597656 22.5625 21.597656 22.828125 L 21.597656 23.085938 L 21.667969 23.085938 C 21.757812 23.085938 21.84375 23.078125 21.898438 23.0625 C 21.976562 23.042969 22.058594 22.984375 22.101562 22.921875 C 22.117188 22.898438 22.136719 22.789062 22.148438 22.753906 C 22.160156 22.746094 22.183594 22.738281 22.210938 22.738281 C 22.230469 22.738281 22.246094 22.746094 22.261719 22.757812 C 22.257812 22.835938 22.242188 22.988281 22.242188 23.183594 C 22.242188 23.28125 22.253906 23.496094 22.253906 23.582031 C 22.234375 23.597656 22.226562 23.597656 22.199219 23.597656 C 22.183594 23.597656 22.15625 23.597656 22.140625 23.59375 C 22.121094 23.421875 22.09375 23.304688 21.953125 23.246094 C 21.871094 23.210938 21.808594 23.203125 21.730469 23.203125 C 21.6875 23.203125 21.636719 23.207031 21.59375 23.210938 L 21.59375 23.734375 C 21.59375 23.855469 21.605469 23.929688 21.621094 23.972656 C 21.636719 24.007812 21.683594 24.078125 21.742188 24.082031 C 21.773438 24.085938 21.824219 24.097656 21.929688 24.097656 L 22.214844 24.097656 C 22.289062 24.097656 22.398438 24.085938 22.433594 24.066406 C 22.503906 24.019531 22.6875 23.820312 22.753906 23.636719 C 22.78125 23.625 22.792969 23.625 22.8125 23.625 C 22.832031 23.625 22.851562 23.628906 22.875 23.636719 L 22.875 24.167969 C 22.875 24.21875 22.84375 24.222656 22.769531 24.222656 "
       id="path22" />
    <path
       style=" stroke:none;fill-rule:nonzero;fill:rgb(13.729858%,12.159729%,12.548828%);fill-opacity:1;"
       d="M 25.683594 22.320312 C 25.480469 22.328125 25.304688 22.4375 25.304688 22.761719 L 25.300781 23.792969 C 25.300781 23.832031 25.320312 24.125 25.320312 24.234375 C 25.285156 24.257812 25.253906 24.269531 25.234375 24.269531 C 25.226562 24.269531 25.210938 24.257812 25.183594 24.234375 L 23.773438 22.71875 L 23.785156 23.027344 L 23.789062 23.585938 C 23.789062 23.632812 23.800781 23.734375 23.808594 23.816406 C 23.820312 23.941406 23.855469 23.980469 23.910156 24.027344 C 23.980469 24.085938 24.097656 24.105469 24.179688 24.117188 C 24.191406 24.132812 24.195312 24.148438 24.195312 24.160156 C 24.195312 24.167969 24.191406 24.195312 24.175781 24.210938 L 24.023438 24.210938 C 23.894531 24.210938 23.789062 24.207031 23.65625 24.207031 C 23.570312 24.207031 23.445312 24.21875 23.355469 24.21875 L 23.289062 24.21875 C 23.285156 24.203125 23.285156 24.179688 23.285156 24.171875 C 23.285156 24.160156 23.285156 24.144531 23.292969 24.121094 C 23.398438 24.109375 23.554688 24.066406 23.613281 23.980469 C 23.640625 23.929688 23.648438 23.835938 23.648438 23.742188 L 23.648438 23.023438 C 23.648438 22.90625 23.644531 22.847656 23.640625 22.734375 C 23.632812 22.640625 23.613281 22.574219 23.570312 22.519531 C 23.566406 22.507812 23.519531 22.457031 23.472656 22.414062 C 23.425781 22.375 23.3125 22.339844 23.242188 22.3125 C 23.234375 22.296875 23.230469 22.273438 23.230469 22.265625 C 23.230469 22.253906 23.234375 22.230469 23.242188 22.214844 L 23.292969 22.214844 C 23.335938 22.214844 23.554688 22.226562 23.722656 22.226562 L 23.820312 22.226562 C 23.835938 22.234375 23.871094 22.253906 23.878906 22.265625 L 24.925781 23.410156 C 25.003906 23.5 25.105469 23.617188 25.160156 23.6875 L 25.160156 22.863281 C 25.160156 22.753906 25.15625 22.675781 25.152344 22.636719 C 25.144531 22.550781 25.125 22.476562 25.09375 22.421875 C 25.058594 22.371094 24.863281 22.339844 24.765625 22.320312 C 24.753906 22.300781 24.753906 22.277344 24.753906 22.261719 C 24.753906 22.25 24.753906 22.234375 24.757812 22.214844 L 24.820312 22.214844 C 24.917969 22.214844 25.074219 22.230469 25.171875 22.230469 C 25.410156 22.230469 25.484375 22.222656 25.605469 22.222656 L 25.683594 22.222656 C 25.695312 22.238281 25.695312 22.261719 25.695312 22.273438 C 25.695312 22.28125 25.695312 22.304688 25.683594 22.320312 "
       id="path24" />
    <path
       style=" stroke:none;fill-rule:nonzero;fill:rgb(13.729858%,12.159729%,12.548828%);fill-opacity:1;"
       d="M 32.285156 16.042969 C 32.085938 16.050781 31.90625 16.164062 31.90625 16.488281 L 31.90625 17.515625 C 31.90625 17.554688 31.917969 17.847656 31.917969 17.960938 C 31.894531 17.980469 31.855469 17.992188 31.84375 17.992188 C 31.828125 17.992188 31.8125 17.980469 31.785156 17.960938 L 30.371094 16.441406 L 30.390625 16.75 L 30.398438 17.3125 C 30.398438 17.355469 30.40625 17.460938 30.410156 17.539062 C 30.425781 17.664062 30.460938 17.703125 30.511719 17.75 C 30.585938 17.8125 30.703125 17.828125 30.78125 17.839844 C 30.789062 17.855469 30.792969 17.871094 30.792969 17.886719 C 30.792969 17.890625 30.789062 17.917969 30.78125 17.9375 L 30.625 17.9375 C 30.496094 17.9375 30.398438 17.933594 30.257812 17.933594 C 30.167969 17.933594 30.046875 17.941406 29.960938 17.941406 L 29.898438 17.941406 C 29.890625 17.925781 29.886719 17.902344 29.886719 17.894531 C 29.886719 17.886719 29.886719 17.867188 29.902344 17.84375 C 29.996094 17.835938 30.15625 17.789062 30.214844 17.703125 C 30.242188 17.652344 30.246094 17.5625 30.246094 17.464844 L 30.246094 16.746094 C 30.246094 16.628906 30.246094 16.570312 30.242188 16.457031 C 30.238281 16.367188 30.214844 16.296875 30.171875 16.242188 C 30.164062 16.230469 30.121094 16.179688 30.074219 16.136719 C 30.03125 16.097656 29.914062 16.066406 29.84375 16.039062 C 29.839844 16.019531 29.835938 15.996094 29.835938 15.992188 C 29.835938 15.980469 29.839844 15.953125 29.84375 15.941406 L 29.902344 15.941406 C 29.9375 15.941406 30.15625 15.953125 30.324219 15.953125 L 30.417969 15.953125 C 30.4375 15.957031 30.46875 15.980469 30.484375 15.992188 L 31.53125 17.136719 C 31.609375 17.222656 31.710938 17.339844 31.769531 17.414062 L 31.769531 16.589844 C 31.769531 16.476562 31.757812 16.398438 31.753906 16.359375 C 31.75 16.273438 31.726562 16.203125 31.695312 16.144531 C 31.660156 16.09375 31.46875 16.066406 31.367188 16.042969 C 31.359375 16.023438 31.355469 16 31.355469 15.984375 C 31.355469 15.972656 31.355469 15.957031 31.363281 15.941406 L 31.425781 15.941406 C 31.523438 15.941406 31.679688 15.953125 31.777344 15.953125 C 32.011719 15.953125 32.09375 15.945312 32.210938 15.945312 L 32.285156 15.945312 C 32.296875 15.964844 32.300781 15.984375 32.300781 15.996094 C 32.300781 16.003906 32.296875 16.027344 32.285156 16.042969 "
       id="path26" />
    <path
       style=" stroke:none;fill-rule:nonzero;fill:rgb(13.729858%,12.159729%,12.548828%);fill-opacity:1;"
       d="M 34.042969 16.234375 C 33.945312 16.101562 33.824219 16.023438 33.644531 16.023438 C 33.476562 16.023438 33.371094 16.097656 33.273438 16.234375 C 33.152344 16.386719 33.089844 16.628906 33.089844 16.941406 C 33.089844 17.246094 33.152344 17.488281 33.265625 17.640625 C 33.363281 17.789062 33.480469 17.863281 33.65625 17.863281 C 33.871094 17.863281 33.996094 17.761719 34.09375 17.589844 C 34.179688 17.4375 34.222656 17.222656 34.222656 16.949219 C 34.222656 16.617188 34.15625 16.382812 34.042969 16.234375 Z M 34.367188 17.695312 C 34.171875 17.886719 33.902344 17.996094 33.652344 17.996094 C 33.417969 17.996094 33.144531 17.894531 32.953125 17.710938 C 32.746094 17.511719 32.652344 17.242188 32.652344 16.949219 C 32.652344 16.664062 32.746094 16.394531 32.953125 16.191406 C 33.175781 15.980469 33.417969 15.890625 33.65625 15.890625 C 33.835938 15.890625 33.996094 15.933594 34.183594 16.039062 C 34.496094 16.238281 34.675781 16.566406 34.675781 16.925781 C 34.675781 17.210938 34.566406 17.492188 34.367188 17.695312 "
       id="path28" />
    <path
       style=" stroke:none;fill-rule:nonzero;fill:rgb(13.729858%,12.159729%,12.548828%);fill-opacity:1;"
       d="M 37.210938 16.050781 C 37.03125 16.066406 36.910156 16.164062 36.851562 16.289062 L 36.09375 17.980469 C 36.09375 17.980469 36.054688 18.007812 36.035156 18.007812 C 36.011719 18.007812 35.976562 17.980469 35.964844 17.925781 C 35.945312 17.867188 35.851562 17.628906 35.648438 17.167969 L 35.40625 16.617188 C 35.320312 16.414062 35.25 16.277344 35.226562 16.238281 C 35.136719 16.082031 35.027344 16.070312 34.90625 16.050781 C 34.890625 16.03125 34.890625 16.015625 34.890625 16 C 34.890625 15.984375 34.890625 15.972656 34.902344 15.953125 L 35.027344 15.953125 C 35.167969 15.953125 35.289062 15.957031 35.394531 15.957031 C 35.519531 15.957031 35.726562 15.945312 35.871094 15.945312 L 35.949219 15.945312 C 35.96875 15.953125 35.972656 15.980469 35.972656 15.992188 C 35.972656 16 35.972656 16.03125 35.964844 16.046875 C 35.867188 16.054688 35.664062 16.050781 35.664062 16.179688 C 35.664062 16.207031 35.664062 16.257812 35.679688 16.292969 L 36.175781 17.480469 L 36.597656 16.496094 C 36.644531 16.382812 36.652344 16.289062 36.652344 16.238281 C 36.652344 16.125 36.570312 16.078125 36.363281 16.050781 C 36.359375 16.039062 36.351562 16.019531 36.351562 16.003906 C 36.351562 15.984375 36.359375 15.957031 36.363281 15.945312 L 36.421875 15.945312 C 36.515625 15.945312 36.609375 15.957031 36.820312 15.957031 C 36.851562 15.957031 37.003906 15.953125 37.070312 15.953125 L 37.214844 15.953125 C 37.222656 15.96875 37.226562 15.980469 37.226562 15.996094 C 37.226562 16.007812 37.222656 16.039062 37.210938 16.050781 "
       id="path30" />
    <path
       style=" stroke:none;fill-rule:nonzero;fill:rgb(13.729858%,12.159729%,12.548828%);fill-opacity:1;"
       d="M 31.632812 19.710938 C 31.613281 19.710938 31.601562 19.707031 31.574219 19.707031 C 31.53125 19.582031 31.476562 19.46875 31.425781 19.410156 C 31.347656 19.308594 31.261719 19.242188 31.054688 19.214844 C 31.007812 19.210938 30.898438 19.210938 30.859375 19.210938 L 30.855469 20.09375 C 30.855469 20.234375 30.855469 20.398438 30.859375 20.703125 C 30.863281 20.9375 30.96875 20.9375 31.210938 20.964844 C 31.226562 20.992188 31.226562 21.007812 31.226562 21.023438 C 31.226562 21.039062 31.226562 21.054688 31.21875 21.074219 L 31.128906 21.074219 C 30.984375 21.074219 30.707031 21.0625 30.625 21.0625 C 30.5625 21.0625 30.257812 21.078125 30.109375 21.078125 C 30.101562 21.054688 30.09375 21.054688 30.09375 21.023438 C 30.09375 21.007812 30.101562 20.992188 30.105469 20.96875 C 30.425781 20.949219 30.457031 20.886719 30.46875 20.785156 C 30.476562 20.71875 30.476562 20.457031 30.476562 20.1875 L 30.476562 19.457031 C 30.476562 19.367188 30.476562 19.273438 30.460938 19.210938 C 30.402344 19.210938 30.203125 19.210938 30.148438 19.234375 C 29.984375 19.292969 29.871094 19.429688 29.746094 19.671875 C 29.730469 19.679688 29.707031 19.679688 29.691406 19.679688 C 29.671875 19.679688 29.660156 19.671875 29.648438 19.660156 L 29.648438 19.144531 C 29.648438 19.097656 29.65625 19.085938 29.707031 19.085938 C 29.757812 19.085938 29.828125 19.089844 29.921875 19.089844 C 29.996094 19.089844 30.289062 19.09375 30.65625 19.09375 C 31.132812 19.09375 31.492188 19.082031 31.582031 19.082031 C 31.632812 19.082031 31.664062 19.082031 31.679688 19.097656 C 31.6875 19.109375 31.683594 19.144531 31.683594 19.171875 L 31.683594 19.6875 C 31.671875 19.707031 31.652344 19.710938 31.632812 19.710938 "
       id="path32" />
    <path
       style=" stroke:none;fill-rule:nonzero;fill:rgb(13.729858%,12.159729%,12.548828%);fill-opacity:1;"
       d="M 32.769531 19.496094 L 32.765625 19.496094 C 32.722656 19.570312 32.648438 19.746094 32.621094 19.816406 C 32.515625 20.078125 32.476562 20.164062 32.457031 20.203125 L 33.054688 20.203125 C 33.007812 20.082031 32.855469 19.714844 32.769531 19.496094 Z M 34.03125 21.082031 L 33.875 21.082031 C 33.773438 21.082031 33.65625 21.066406 33.535156 21.066406 C 33.347656 21.066406 33.105469 21.082031 33.015625 21.082031 C 33.003906 21.074219 33 21.054688 33 21.03125 C 33 21.015625 33.003906 21 33.007812 20.984375 C 33.203125 20.976562 33.28125 20.941406 33.28125 20.863281 C 33.28125 20.832031 33.28125 20.765625 33.222656 20.605469 C 33.160156 20.457031 33.128906 20.390625 33.113281 20.355469 C 33.105469 20.339844 33.101562 20.332031 33.058594 20.332031 L 32.429688 20.332031 C 32.390625 20.382812 32.335938 20.523438 32.28125 20.714844 C 32.269531 20.765625 32.269531 20.8125 32.269531 20.832031 C 32.269531 20.894531 32.328125 20.96875 32.550781 20.976562 C 32.566406 21 32.566406 21.015625 32.566406 21.03125 C 32.566406 21.042969 32.566406 21.0625 32.558594 21.078125 L 32.503906 21.078125 C 32.355469 21.078125 32.316406 21.066406 32.15625 21.066406 C 32.054688 21.066406 31.808594 21.078125 31.726562 21.078125 C 31.722656 21.0625 31.71875 21.054688 31.71875 21.035156 C 31.71875 21.019531 31.71875 21.007812 31.726562 20.984375 C 31.847656 20.957031 31.957031 20.925781 32.011719 20.839844 C 32.046875 20.789062 32.152344 20.605469 32.269531 20.316406 C 32.378906 20.050781 32.515625 19.710938 32.574219 19.570312 C 32.65625 19.398438 32.683594 19.339844 32.714844 19.28125 C 32.753906 19.191406 32.800781 19.105469 32.820312 19.070312 C 32.839844 19.046875 32.878906 19.035156 32.898438 19.035156 C 32.929688 19.035156 32.972656 19.054688 32.984375 19.074219 C 33.003906 19.113281 33.027344 19.152344 33.03125 19.175781 C 33.148438 19.449219 33.238281 19.695312 33.382812 20.039062 C 33.457031 20.214844 33.496094 20.320312 33.574219 20.503906 C 33.628906 20.617188 33.660156 20.703125 33.71875 20.804688 C 33.792969 20.957031 33.910156 20.957031 34.03125 20.988281 C 34.035156 21.003906 34.050781 21.015625 34.050781 21.035156 C 34.050781 21.054688 34.042969 21.0625 34.03125 21.082031 "
       id="path34" />
    <path
       style=" stroke:none;fill-rule:nonzero;fill:rgb(13.729858%,12.159729%,12.548828%);fill-opacity:1;"
       d="M 37.128906 21.082031 L 36.316406 21.074219 L 36.09375 21.074219 C 36.085938 21.054688 36.082031 21.03125 36.082031 21.019531 C 36.082031 20.996094 36.085938 20.992188 36.097656 20.96875 C 36.140625 20.964844 36.246094 20.96875 36.296875 20.953125 C 36.382812 20.914062 36.414062 20.832031 36.414062 20.714844 L 36.414062 19.542969 C 36.414062 19.542969 36.414062 19.332031 36.414062 19.273438 L 36.410156 19.273438 L 35.980469 20.207031 C 35.9375 20.308594 35.882812 20.417969 35.835938 20.53125 C 35.738281 20.75 35.6875 20.898438 35.65625 20.984375 C 35.644531 21.019531 35.613281 21.019531 35.59375 21.019531 C 35.566406 21.019531 35.546875 21.011719 35.53125 20.964844 C 35.476562 20.84375 35.441406 20.765625 35.421875 20.714844 L 34.757812 19.246094 L 34.742188 19.246094 L 34.742188 19.621094 L 34.757812 20.558594 C 34.757812 20.84375 34.902344 20.980469 35.132812 20.980469 C 35.140625 20.996094 35.148438 21.019531 35.148438 21.027344 C 35.148438 21.039062 35.144531 21.0625 35.136719 21.078125 C 35.121094 21.078125 35.074219 21.082031 35.03125 21.082031 C 35.007812 21.082031 34.855469 21.066406 34.644531 21.066406 C 34.585938 21.066406 34.460938 21.074219 34.359375 21.074219 L 34.226562 21.074219 C 34.222656 21.054688 34.21875 21.039062 34.21875 21.023438 C 34.21875 21.015625 34.222656 20.996094 34.226562 20.980469 C 34.28125 20.964844 34.476562 20.917969 34.519531 20.878906 C 34.558594 20.839844 34.597656 20.753906 34.597656 20.554688 L 34.597656 19.527344 C 34.59375 19.363281 34.574219 19.300781 34.496094 19.246094 C 34.464844 19.21875 34.339844 19.207031 34.230469 19.191406 C 34.222656 19.171875 34.21875 19.152344 34.21875 19.136719 C 34.21875 19.121094 34.222656 19.105469 34.230469 19.082031 C 34.308594 19.082031 34.449219 19.089844 34.589844 19.089844 L 35.074219 19.089844 C 35.09375 19.105469 35.101562 19.113281 35.117188 19.140625 L 35.714844 20.496094 L 35.820312 20.226562 C 35.914062 20.007812 36.046875 19.679688 36.238281 19.324219 C 36.28125 19.246094 36.332031 19.148438 36.359375 19.09375 L 37.117188 19.082031 C 37.128906 19.097656 37.136719 19.113281 37.136719 19.132812 C 37.136719 19.152344 37.132812 19.164062 37.121094 19.183594 C 37.039062 19.195312 36.894531 19.195312 36.828125 19.3125 C 36.800781 19.347656 36.789062 19.386719 36.789062 19.550781 L 36.789062 20.515625 C 36.789062 20.886719 36.882812 20.925781 36.921875 20.953125 C 36.945312 20.964844 37.0625 20.980469 37.128906 20.980469 C 37.136719 21 37.140625 21.011719 37.140625 21.03125 C 37.140625 21.0625 37.132812 21.0625 37.128906 21.082031 "
       id="path36" />
    <path
       style=" stroke:none;fill-rule:nonzero;fill:rgb(13.729858%,12.159729%,12.548828%);fill-opacity:1;"
       d="M 31.585938 22.851562 C 31.570312 22.851562 31.554688 22.847656 31.527344 22.847656 C 31.484375 22.722656 31.429688 22.609375 31.378906 22.550781 C 31.300781 22.449219 31.21875 22.382812 31.007812 22.355469 C 30.960938 22.351562 30.851562 22.351562 30.8125 22.351562 L 30.808594 23.234375 C 30.808594 23.375 30.808594 23.539062 30.8125 23.84375 C 30.820312 24.078125 30.925781 24.078125 31.164062 24.105469 C 31.179688 24.132812 31.179688 24.148438 31.179688 24.164062 C 31.179688 24.179688 31.179688 24.195312 31.167969 24.210938 L 31.082031 24.210938 C 30.9375 24.210938 30.660156 24.203125 30.578125 24.203125 C 30.515625 24.203125 30.210938 24.21875 30.0625 24.21875 C 30.054688 24.195312 30.046875 24.195312 30.046875 24.164062 C 30.046875 24.148438 30.054688 24.132812 30.058594 24.109375 C 30.378906 24.085938 30.410156 24.027344 30.425781 23.925781 C 30.429688 23.859375 30.429688 23.597656 30.429688 23.328125 L 30.429688 22.597656 C 30.429688 22.507812 30.429688 22.414062 30.414062 22.351562 C 30.355469 22.351562 30.15625 22.351562 30.101562 22.375 C 29.9375 22.433594 29.828125 22.570312 29.703125 22.8125 C 29.683594 22.820312 29.660156 22.820312 29.648438 22.820312 C 29.628906 22.820312 29.613281 22.8125 29.597656 22.800781 L 29.597656 22.285156 C 29.597656 22.238281 29.609375 22.226562 29.660156 22.226562 C 29.710938 22.226562 29.78125 22.230469 29.878906 22.230469 C 29.953125 22.230469 30.242188 22.234375 30.609375 22.234375 C 31.085938 22.234375 31.449219 22.222656 31.535156 22.222656 C 31.585938 22.222656 31.617188 22.222656 31.632812 22.238281 C 31.644531 22.25 31.636719 22.285156 31.636719 22.3125 L 31.636719 22.828125 C 31.625 22.847656 31.605469 22.851562 31.585938 22.851562 "
       id="path38" />
    <path
       style=" stroke:none;fill-rule:nonzero;fill:rgb(13.729858%,12.159729%,12.548828%);fill-opacity:1;"
       d="M 34.074219 22.328125 C 33.894531 22.339844 33.773438 22.4375 33.71875 22.5625 L 32.957031 24.257812 C 32.957031 24.257812 32.921875 24.28125 32.898438 24.28125 C 32.875 24.28125 32.84375 24.257812 32.828125 24.203125 C 32.808594 24.144531 32.71875 23.90625 32.515625 23.445312 L 32.273438 22.894531 C 32.183594 22.6875 32.113281 22.554688 32.09375 22.511719 C 32 22.359375 31.894531 22.347656 31.773438 22.328125 C 31.753906 22.308594 31.753906 22.292969 31.753906 22.277344 C 31.753906 22.261719 31.753906 22.25 31.769531 22.226562 L 31.894531 22.226562 C 32.03125 22.226562 32.152344 22.234375 32.257812 22.234375 C 32.382812 22.234375 32.59375 22.222656 32.734375 22.222656 L 32.816406 22.222656 C 32.832031 22.226562 32.839844 22.253906 32.839844 22.265625 C 32.839844 22.277344 32.839844 22.308594 32.828125 22.324219 C 32.730469 22.332031 32.527344 22.328125 32.527344 22.457031 C 32.527344 22.484375 32.527344 22.535156 32.546875 22.570312 L 33.039062 23.757812 L 33.464844 22.773438 C 33.511719 22.660156 33.515625 22.5625 33.515625 22.511719 C 33.515625 22.402344 33.433594 22.351562 33.226562 22.328125 C 33.222656 22.3125 33.21875 22.296875 33.21875 22.28125 C 33.21875 22.261719 33.222656 22.234375 33.226562 22.222656 L 33.285156 22.222656 C 33.378906 22.222656 33.472656 22.234375 33.683594 22.234375 C 33.71875 22.234375 33.867188 22.226562 33.933594 22.226562 L 34.078125 22.226562 C 34.089844 22.246094 34.09375 22.253906 34.09375 22.273438 C 34.09375 22.285156 34.089844 22.316406 34.074219 22.328125 "
       id="path40" />
    <path
       style=" stroke:none;fill-rule:nonzero;fill:rgb(13.729858%,12.159729%,12.548828%);fill-opacity:1;"
       d="M 37.167969 24.222656 L 36.363281 24.210938 L 36.136719 24.210938 C 36.128906 24.195312 36.128906 24.171875 36.128906 24.160156 C 36.128906 24.136719 36.128906 24.132812 36.140625 24.109375 C 36.1875 24.105469 36.289062 24.109375 36.34375 24.09375 C 36.421875 24.054688 36.457031 23.972656 36.457031 23.855469 L 36.457031 22.683594 C 36.457031 22.683594 36.460938 22.472656 36.460938 22.414062 L 36.453125 22.414062 L 36.03125 23.347656 C 35.976562 23.449219 35.925781 23.558594 35.875 23.671875 C 35.78125 23.886719 35.726562 24.039062 35.699219 24.125 C 35.691406 24.160156 35.65625 24.160156 35.636719 24.160156 C 35.613281 24.160156 35.59375 24.152344 35.574219 24.105469 C 35.523438 23.984375 35.488281 23.90625 35.46875 23.855469 L 34.796875 22.386719 L 34.78125 22.386719 L 34.78125 22.761719 L 34.796875 23.699219 C 34.800781 23.984375 34.945312 24.121094 35.175781 24.121094 C 35.1875 24.136719 35.191406 24.160156 35.191406 24.167969 C 35.191406 24.179688 35.191406 24.203125 35.179688 24.21875 C 35.164062 24.21875 35.121094 24.222656 35.074219 24.222656 C 35.046875 24.222656 34.902344 24.207031 34.691406 24.207031 C 34.625 24.207031 34.5 24.210938 34.40625 24.210938 L 34.273438 24.210938 C 34.265625 24.195312 34.261719 24.179688 34.261719 24.164062 C 34.261719 24.15625 34.265625 24.136719 34.273438 24.121094 C 34.324219 24.105469 34.523438 24.058594 34.566406 24.019531 C 34.601562 23.980469 34.640625 23.894531 34.640625 23.695312 L 34.644531 23.222656 L 34.640625 22.667969 C 34.636719 22.503906 34.621094 22.441406 34.539062 22.386719 C 34.503906 22.359375 34.378906 22.347656 34.277344 22.332031 C 34.265625 22.3125 34.261719 22.292969 34.261719 22.277344 C 34.261719 22.261719 34.265625 22.246094 34.277344 22.222656 C 34.351562 22.222656 34.496094 22.230469 34.628906 22.230469 L 35.121094 22.230469 C 35.136719 22.246094 35.148438 22.253906 35.15625 22.28125 L 35.757812 23.636719 L 35.867188 23.363281 C 35.957031 23.148438 36.09375 22.820312 36.285156 22.464844 C 36.320312 22.386719 36.378906 22.289062 36.40625 22.234375 L 37.160156 22.222656 C 37.167969 22.238281 37.183594 22.253906 37.183594 22.273438 C 37.183594 22.292969 37.171875 22.304688 37.164062 22.324219 C 37.085938 22.335938 36.941406 22.335938 36.871094 22.453125 C 36.847656 22.488281 36.832031 22.527344 36.832031 22.691406 L 36.832031 23.65625 C 36.832031 24.027344 36.921875 24.066406 36.96875 24.09375 C 36.988281 24.105469 37.101562 24.121094 37.167969 24.121094 C 37.183594 24.140625 37.1875 24.152344 37.1875 24.171875 C 37.1875 24.203125 37.175781 24.203125 37.167969 24.222656 "
       id="path42" />
    <g
       clip-path="url(#clip1)"
       clip-rule="nonzero"
       id="g44">
      <path
         style=" stroke:none;fill-rule:nonzero;fill:rgb(13.729858%,12.159729%,12.548828%);fill-opacity:1;"
         d="M 53.457031 31.875 C 52.054688 38.136719 49.753906 44.144531 46.636719 49.734375 L 28.292969 32.089844 L 9.96875 49.699219 C 6.703125 43.84375 4.351562 37.59375 2.972656 31.117188 L 53.609375 31.117188 Z M 28.289062 70.746094 C 23.71875 67.261719 19.570312 63.246094 16.007812 58.75 C 15.996094 58.730469 15.980469 58.707031 15.96875 58.6875 L 28.292969 46.699219 L 40.644531 58.710938 C 40.625 58.730469 40.609375 58.757812 40.59375 58.78125 C 37.039062 63.253906 32.882812 67.257812 28.289062 70.746094 Z M 15.484375 22.648438 L 16.597656 22.648438 L 16.597656 24.871094 L 15.484375 24.871094 Z M 15.484375 16.839844 L 16.597656 16.839844 L 16.597656 19.058594 L 15.484375 19.058594 Z M 17.070312 15.453125 C 17.285156 15.40625 17.929688 15.269531 18.246094 15.203125 L 18.246094 26.039062 C 18.363281 26.289062 18.855469 26.863281 21.121094 26.863281 L 23.988281 26.488281 L 26.179688 26.175781 C 27.644531 26.175781 28.101562 26.953125 28.128906 26.984375 L 28.191406 26.949219 L 28.53125 26.949219 L 28.59375 26.984375 C 28.613281 26.949219 29.066406 26.175781 30.515625 26.175781 L 32.707031 26.484375 L 35.59375 26.863281 C 37.890625 26.863281 38.460938 26.261719 38.523438 26.191406 L 38.5625 15.148438 C 38.863281 15.230469 39.414062 15.382812 39.609375 15.441406 L 39.609375 27.410156 C 39.027344 27.496094 37.175781 27.734375 35.460938 27.734375 C 32.988281 27.734375 29.953125 27.347656 29.917969 27.347656 L 29.65625 27.308594 C 29.65625 27.308594 29.65625 27.929688 29.65625 28.121094 C 29.417969 28.207031 28.910156 28.367188 28.3125 28.367188 C 27.722656 28.367188 27.246094 28.207031 27.023438 28.121094 C 27.023438 27.933594 27.023438 27.308594 27.023438 27.308594 L 26.757812 27.347656 C 26.726562 27.347656 23.679688 27.734375 21.230469 27.734375 C 19.503906 27.734375 17.648438 27.496094 17.070312 27.410156 Z M 18.71875 13.984375 C 19.097656 14.175781 19.78125 14.375 21.121094 14.375 L 24.015625 13.996094 L 26.199219 13.683594 C 27.640625 13.683594 28.097656 14.449219 28.121094 14.488281 L 28.121094 26.3125 C 27.773438 26.023438 27.1875 25.703125 26.179688 25.703125 L 23.890625 26.023438 L 21.121094 26.390625 C 19.097656 26.390625 18.675781 25.902344 18.671875 25.898438 C 18.671875 25.898438 18.714844 14.792969 18.71875 13.984375 Z M 28.59375 14.488281 C 28.613281 14.457031 29.066406 13.683594 30.515625 13.683594 L 32.707031 13.992188 L 35.59375 14.371094 C 36.992188 14.371094 37.707031 14.152344 38.097656 13.960938 L 38.097656 26.019531 C 38.074219 25.960938 37.503906 26.390625 35.59375 26.390625 L 32.808594 26.023438 L 30.515625 25.703125 C 29.527344 25.703125 28.941406 26.019531 28.59375 26.308594 Z M 40.082031 22.648438 L 41.21875 22.648438 L 41.21875 24.871094 L 40.082031 24.871094 Z M 40.082031 16.839844 L 41.21875 16.839844 L 41.21875 19.058594 L 40.082031 19.058594 Z M 56.355469 11.679688 L 56.273438 10.734375 L 55.363281 11.007812 C 53.167969 11.679688 50.878906 12.019531 48.558594 12.019531 C 40.535156 12.019531 33.023438 7.832031 28.960938 1.09375 L 28.300781 0 L 27.640625 1.09375 C 23.578125 7.832031 16.070312 12.019531 8.042969 12.019531 C 5.726562 12.019531 3.4375 11.679688 1.25 11.011719 L 0.339844 10.738281 L 0.257812 11.683594 C -0.320312 18.238281 0.0742188 24.828125 1.425781 31.273438 C 2.839844 38.027344 5.292969 44.539062 8.714844 50.625 C 10.488281 53.789062 12.535156 56.839844 14.800781 59.703125 C 18.570312 64.46875 22.953125 68.730469 27.828125 72.378906 L 28.285156 72.71875 L 28.746094 72.378906 C 33.648438 68.726562 38.039062 64.476562 41.796875 59.742188 C 44.058594 56.890625 46.105469 53.84375 47.882812 50.675781 C 51.128906 44.902344 53.511719 38.6875 54.960938 32.210938 C 54.960938 32.207031 55.152344 31.273438 55.152344 31.273438 C 56.511719 24.777344 56.914062 18.183594 56.355469 11.679688 "
         id="path46" />
    </g>
  </g>
</svg>
