<?xml version="1.0" encoding="UTF-8" standalone="no"?>
<!-- Created with Inkscape (http://www.inkscape.org/) -->

<svg
   xmlns:dc="http://purl.org/dc/elements/1.1/"
   xmlns:cc="http://creativecommons.org/ns#"
   xmlns:rdf="http://www.w3.org/1999/02/22-rdf-syntax-ns#"
   xmlns:svg="http://www.w3.org/2000/svg"
   xmlns="http://www.w3.org/2000/svg"
   xmlns:sodipodi="http://sodipodi.sourceforge.net/DTD/sodipodi-0.dtd"
   xmlns:inkscape="http://www.inkscape.org/namespaces/inkscape"
   id="svg3371"
   version="1.1"
   inkscape:version="0.91 r13725"
   xml:space="preserve"
   width="430.17499"
   height="548.77502"
   viewBox="0 0 430.17499 548.77502"
   sodipodi:docname="ShieldColor.svg"><metadata
     id="metadata3377"><rdf:RDF><cc:Work
         rdf:about=""><dc:format>image/svg+xml</dc:format><dc:type
           rdf:resource="http://purl.org/dc/dcmitype/StillImage" /><dc:title></dc:title></cc:Work></rdf:RDF></metadata><defs
     id="defs3375" /><sodipodi:namedview
     pagecolor="#ffffff"
     bordercolor="#666666"
     borderopacity="1"
     objecttolerance="10"
     gridtolerance="10"
     guidetolerance="10"
     inkscape:pageopacity="0"
     inkscape:pageshadow="2"
     inkscape:window-width="1855"
     inkscape:window-height="1056"
     id="namedview3373"
     showgrid="false"
     inkscape:zoom="1.6746389"
     inkscape:cx="215.08749"
     inkscape:cy="274.38751"
     inkscape:window-x="65"
     inkscape:window-y="24"
     inkscape:window-maximized="1"
     inkscape:current-layer="g3379" /><g
     id="g3379"
     inkscape:groupmode="layer"
     inkscape:label="ink_ext_XXXXXX"
     transform="matrix(1.25,0,0,-1.25,0,548.775)"><g
       id="g3381"
       transform="scale(0.1,0.1)"><path
         d="M 914.793,783.168 C 1145.83,491.039 1415.96,227.281 1719.96,-0.0117188 2020.78,224.078 2292.36,486.398 2526.59,781.129 L 1719.38,1566.04 914.793,783.168"
         style="fill:#ef6419;fill-opacity:1;fill-rule:nonzero;stroke:none"
         id="path3383"
         inkscape:connector-curvature="0" /><path
         d="M 539.277,1344.56 1720.26,2478.86 2903.55,1341.37 c 196.6,349.46 345.69,731.72 437.48,1140.38 4.05,19.39 7.52,38.51 11.58,57.9 l -3263.8405,0 C 177.074,2118.97 330.234,1716.61 539.277,1344.56"
         style="fill:#ef6419;fill-opacity:1;fill-rule:nonzero;stroke:none"
         id="path3385"
         inkscape:connector-curvature="0" /><path
         d="m 538.551,1344.56 c 110.023,-196.3 235.965,-383.9 376.375,-561.392 l 804.604,782.872 807.2,-784.911 c 139.26,175.461 265.22,362.791 376.1,560.241 L 1719.53,2478.86 538.551,1344.56"
         style="fill:#ef6419;fill-opacity:1;fill-rule:nonzero;stroke:none"
         id="path3387"
         inkscape:connector-curvature="0" /><path
         d="M 1719.53,1569.52 915.172,786.891 C 775.844,963.238 650.199,1150.69 541.676,1344.1 L 1719.53,2475.39 2899.7,1340.91 C 2790.39,1146.47 2664.85,959.418 2526.49,784.859 l -806.96,784.661"
         style="fill:#231f20;fill-opacity:1;fill-rule:nonzero;stroke:none"
         id="path3389"
         inkscape:connector-curvature="0" /><path
         d="M 1719.53,2478.86 538.551,1344.56 c 110.023,-196.3 235.965,-383.9 376.375,-561.392 l 804.604,782.872 807.2,-784.911 c 139.26,175.461 265.22,362.791 376.1,560.241 l -1183.3,1137.49 0,0 z m 0,-6.93 1177.05,-1131.48 C 2788,1147.53 2663.43,961.898 2526.25,788.578 l -803.23,781.042 -3.49,3.4 -3.49,-3.4 L 915.414,790.621 C 777.27,965.699 652.602,1151.73 544.805,1343.63 l 1174.725,1128.3"
         style="fill:#231f20;fill-opacity:1;fill-rule:nonzero;stroke:none"
         id="path3391"
         inkscape:connector-curvature="0" /><path
         d="m 3426.22,3749.23 c -138.69,-42.28 -286.05,-65.15 -439.21,-65.15 -539.98,0 -1011.61,283.74 -1266.1,706.16 -254.79,-422.42 -726.426,-706.16 -1266.394,-706.16 -152.883,0 -300.246,22.87 -438.6371,64.85 -36.1875,-412.28 -9.84374,-819.07 72.0899,-1210.21 l 3263.8412,0 c 85.41,407.93 108.56,814.73 74.41,1210.51"
         style="fill:#231f20;fill-opacity:1;fill-rule:nonzero;stroke:none"
         id="path3393"
         inkscape:connector-curvature="0" /><path
         d="m 2524.78,3250.01 0,138.69 -84.84,0 0,97.85 -88.88,24.91 -6.37,0 0,83.08 c 0,0 -30.69,-36.76 -171.4,-36.76 -133.18,0 -211.36,43.14 -317.32,43.14 -101.91,0 -133.19,-58.2 -133.19,-58.2 l 0,-33.58 -3.47,0 0,33.58 c 0,0 -31.84,58.2 -133.18,58.2 -105.97,0 -184.14,-43.44 -317.33,-43.44 -140.71,0 -165.02,36.78 -165.02,36.78 l 0,-87.44 -5.79,0 -96.42,-20.27 0,-97.85 -85.117,0 0,-138.69 85.117,0 0,-224.39 -85.117,0 0,-138.97 85.117,0 0,-172.55 c 0,0 142.74,-22.3 274.76,-22.3 156.07,0 246.11,22.58 347.44,24.61 l 0,-43.71 c 0,0 40.82,-20.27 95.26,-20.27 55.01,0 98.72,20.27 98.72,20.27 l 0,43.71 c 101.04,-2.03 191.08,-24.61 348.01,-24.61 131.44,0 274.18,22.3 274.18,22.3 l 0,172.55 84.84,0 0,138.97 -84.84,0 0,224.39 84.84,0"
         style="fill:#ffffff;fill-opacity:1;fill-rule:nonzero;stroke:none"
         id="path3395"
         inkscape:connector-curvature="0" /><path
         d="m 2423.29,2723.07 c -36.33,-5.21 -151.93,-20.27 -259.55,-20.27 -154.25,0 -344.47,24.03 -346.36,24.33 l -16.64,2.31 c 0,0 0,-38.79 0,-50.66 -14.62,-5.51 -46.61,-15.35 -83.96,-15.35 -36.62,0 -66.6,9.84 -80.48,15.05 0,11.87 0,50.96 0,50.96 l -16.67,-2.31 c -1.86,-0.3 -192.23,-24.33 -345.54,-24.33 -107.99,0 -223.66,15.06 -259.99,20.27 l 0,747.78 c 13.6,2.6 53.98,11.29 73.69,15.35 l 0,-677.36 c 7.23,-15.63 38.21,-51.53 179.78,-51.53 l 179.22,23.45 136.95,19.69 c 91.48,0 120.15,-48.64 121.46,-50.67 l 4.19,2.31 21.14,0 4.05,-2.31 c 1.17,2.03 29.39,50.67 120.16,50.67 l 136.87,-19.41 180.67,-23.73 c 143.52,0 179.35,37.64 182.99,41.98 l 2.74,690.37 c 18.82,-5.21 53.27,-14.76 65.28,-18.23 l 0,-748.36 z m -1305.98,839.26 c 23.74,-11.86 66.3,-24.31 150.26,-24.31 l 180.52,23.73 136.81,19.69 c 89.89,0 118.56,-48.06 120.15,-50.67 l 0,-739.01 c -21.85,18.23 -58.63,38.22 -121.31,38.22 l -143.31,-20.27 -172.86,-22.87 c -126.52,0 -152.86,30.4 -153.16,30.69 0,0 2.61,694.43 2.9,744.8 z m 617.27,-31.56 c 1.17,2.03 29.39,50.67 120.16,50.67 l 136.87,-19.39 180.67,-23.75 c 87.51,0 132.1,13.61 156.78,25.49 l 0,-753.8 c -1.89,3.77 -37.42,-23.15 -156.78,-23.15 l -174.22,23.15 -143.32,19.99 c -62.11,0 -98.45,-19.99 -120.16,-37.94 l 0,738.73 z m 623.58,-10.13 0.43,106.26 -25.76,-27.21 c -0.31,-0.3 -31.93,-31.86 -160.55,-31.86 l -174.22,23.17 -143.32,19.98 c -78.61,0 -117.84,-32.14 -134.93,-51.54 -17.22,19.4 -56.74,51.54 -134.91,51.54 l -143.17,-20.28 -174.16,-23.15 c -126.52,0 -152.86,30.4 -153.16,30.68 l -26.19,32.14 -0.43,-40.82 0,-72.97 -103.22,-21.69 0,-797.59 12.45,-1.73 c 1.437,-0.3 145.33,-22.59 277.07,-22.59 129.86,0 284.02,17.09 332.66,22.87 0,-12.73 0,-36.18 0,-36.18 l 8.11,-4.35 c 1.88,-0.87 44.59,-21.71 101.92,-21.71 57.61,0 103.06,20.84 104.95,21.71 l 8.54,4.05 c 0,0 0,23.75 0,36.48 48.64,-5.78 202.81,-22.87 333.47,-22.87 131.22,0 275.27,22.29 276.71,22.59 l 12.44,1.73 0,796.71 -94.73,26.63"
         style="fill:#231f20;fill-opacity:1;fill-rule:nonzero;stroke:none"
         id="path3397"
         inkscape:connector-curvature="0" /><path
         d="m 1327.22,3429.58 c -11.58,-0.86 -19.11,-6.93 -22.59,-14.76 l -47.48,-105.68 c 0,0 -2.31,-1.74 -3.77,-1.74 -1.43,0 -3.17,1.74 -4.34,4.93 -1.16,3.77 -6.94,18.53 -19.39,47.48 l -15.34,34.45 c -5.5,12.75 -9.84,21.14 -11.3,23.74 -5.5,9.57 -12.45,10.43 -19.98,11.58 -0.86,1.16 -0.86,2.33 -0.86,3.19 0,1.16 0,1.73 0.58,3.19 l 7.81,0 c 8.98,0 16.5,-0.58 23.17,-0.58 7.81,0 20.84,0.88 29.53,0.88 l 5.2,0 c 0.87,-0.3 1.17,-2.03 1.17,-2.91 0,-0.58 0,-2.61 -0.59,-3.47 -5.78,-0.58 -18.81,-0.3 -18.81,-8.4 0,-1.74 0.28,-4.93 1.16,-6.94 l 31.26,-74.12 26.06,61.37 c 3.18,6.95 3.48,13.03 3.48,16.21 0,6.96 -4.92,10.14 -17.95,11.58 -0.3,0.88 -0.88,2.03 -0.88,2.91 0,1.15 0.58,2.89 0.88,3.77 l 3.77,0 c 5.78,0 11.57,-0.88 24.6,-0.88 2.32,0 11.29,0.58 15.63,0.58 l 8.98,0 c 0.58,-1.16 1.16,-1.73 1.16,-2.89 0,-0.87 -0.58,-2.61 -1.16,-3.49"
         style="fill:#231f20;fill-opacity:1;fill-rule:nonzero;stroke:none"
         id="path3399"
         inkscape:connector-curvature="0" /><path
         d="m 1459.53,3311.17 c -37.92,0 -58.49,0.88 -63.69,0.88 -4.06,0 -13.33,0.28 -17.95,0.28 -5.22,0 -17.37,-0.86 -30.69,-0.86 l -7.53,0.28 c -0.57,1.16 -0.57,1.73 -0.57,2.89 0,0.87 0,2.33 0.27,3.48 10.15,0.87 17.38,2.61 19.12,4.05 2.03,2.61 3.48,7.83 4.05,19.11 0,5.8 0.29,12.17 0.29,18.82 0,9.55 -0.29,21.14 -0.29,35.03 0,9.85 0,15.64 0,19.69 -0.29,13.61 -6.95,13.61 -21.13,15.34 -0.3,1.16 -0.58,2.33 -0.58,3.19 0,0.88 0.28,2.91 1.16,3.19 l 6.95,0 c 4.62,0 17.07,-0.28 40.82,-0.28 21.72,0 42.84,-0.3 47.48,-0.3 2.89,0 11.3,-0.3 13.03,-0.3 2.89,0 4.05,-0.28 4.05,-2.89 l 1.73,-28.38 c -1.73,-0.87 -2.01,-1.15 -3.46,-1.15 -1.16,0 -2.03,0 -2.89,0.28 -8.41,14.21 -12.46,17.1 -18.83,21.72 -2.32,1.75 -5.8,2.9 -11,3.19 -1.74,0 -6.08,0.29 -16.8,0.29 -8.68,0 -13.03,-0.29 -14.18,-0.29 -1.45,0 -1.16,0 -1.74,-4.92 -0.3,-2.89 -0.57,-8.69 -0.57,-25.19 l 0,-16.22 4.34,0 c 5.5,0 11,0.58 14.19,1.46 4.92,1.43 10.12,4.92 12.73,8.97 1.15,1.45 2.31,8.4 2.9,10.42 0.87,0.57 2.32,0.87 4.05,0.87 1.16,0 2.31,-0.3 3.19,-0.87 -0.3,-5.21 -1.16,-14.77 -1.16,-26.92 0,-6.08 0.58,-19.41 0.58,-24.91 -1.16,-0.86 -1.74,-0.86 -3.49,-0.86 -0.85,0 -2.59,0 -3.46,0.28 -1.16,10.72 -2.89,17.95 -11.88,21.72 -4.92,2.03 -8.97,2.61 -13.89,2.61 -2.61,0 -5.79,-0.3 -8.4,-0.58 l 0,-32.72 c 0,-7.53 0.57,-12.16 1.73,-14.76 0.88,-2.03 3.77,-6.37 7.53,-6.95 1.74,-0.3 4.92,-0.87 11.6,-0.87 l 17.93,0 c 4.64,0 11.3,0.57 13.61,2.02 4.34,2.89 15.94,15.35 19.98,26.93 1.74,0.59 2.61,0.59 3.77,0.59 1.15,0 2.31,-0.3 3.77,-0.88 l 0,-33.01 c 0,-3.17 -2.04,-3.47 -6.67,-3.47"
         style="fill:#231f20;fill-opacity:1;fill-rule:nonzero;stroke:none"
         id="path3401"
         inkscape:connector-curvature="0" /><path
         d="m 1610.09,3396.87 c -0.88,0 -2.03,0.29 -3.47,0.29 -2.91,7.82 -6.38,14.77 -9.27,18.54 -5.21,6.35 -10.13,10.7 -23.17,12.15 -2.89,0.29 -9.84,0.29 -12.15,0.29 l -0.3,-55.3 c 0,-8.69 0,-18.81 0.3,-37.92 0.28,-14.48 6.66,-14.48 21.71,-16.51 0.86,-1.44 1.16,-2.6 1.16,-3.47 0,-1.16 -0.3,-2.03 -0.87,-3.19 l -5.5,0 c -8.69,0 -26.06,0.58 -31.56,0.58 -3.77,0 -22.87,-0.86 -31.84,-0.86 -0.88,1.44 -1.16,1.44 -1.16,3.47 0,0.87 0.28,2.03 0.86,3.18 19.98,1.44 22.01,5.21 22.59,11.58 0.58,4.05 0.58,20.56 0.58,37.36 l 0,45.73 c 0,5.8 -0.3,11.59 -1.16,15.35 -3.76,0 -15.93,0 -19.4,-1.45 -10.14,-3.76 -17.37,-12.15 -25.19,-27.49 -0.87,-0.3 -2.32,-0.3 -3.18,-0.3 -1.16,0 -2.32,0.3 -2.89,1.15 l 0,32.15 c 0,2.89 0.28,3.76 3.75,3.76 2.9,0 7.52,-0.3 13.6,-0.3 4.35,0 22.6,-0.28 45.47,-0.28 30.11,0 52.4,0.88 58.2,0.88 2.89,0 4.92,0 6.08,-1.17 0.28,-0.59 0,-2.89 0,-4.63 l 0,-32.14 c -0.58,-1.16 -2.04,-1.45 -3.19,-1.45"
         style="fill:#231f20;fill-opacity:1;fill-rule:nonzero;stroke:none"
         id="path3403"
         inkscape:connector-curvature="0" /><path
         d="m 1321.14,3200.87 c -1.16,0 -2.03,0.28 -3.76,0.28 -2.61,7.81 -6.08,14.76 -9.27,18.53 -4.92,6.37 -10.14,10.72 -23.17,12.15 -2.89,0.3 -9.84,0.3 -12.15,0.3 l -0.29,-55.29 c 0,-8.69 0,-18.83 0.29,-37.94 0.29,-14.48 6.95,-14.48 21.99,-16.5 0.88,-1.45 0.88,-2.6 0.88,-3.48 0,-1.15 0,-2.01 -0.58,-3.19 l -5.5,0 c -8.98,0 -26.34,0.59 -31.56,0.59 -3.76,0 -22.87,-0.87 -32.14,-0.87 -0.57,1.46 -0.87,1.46 -0.87,3.47 0,0.88 0.3,2.03 0.58,3.19 19.98,1.45 22.01,5.22 22.87,11.58 0.3,4.06 0.3,20.56 0.3,37.35 l 0,45.75 c 0,5.78 0,11.58 -0.88,15.34 -3.76,0 -16.2,0 -19.68,-1.45 -10.13,-3.77 -17.08,-12.16 -24.89,-27.5 -1.17,-0.3 -2.61,-0.3 -3.49,-0.3 -1.15,0 -2.03,0.3 -2.89,1.16 l 0,32.14 c 0,2.9 0.58,3.76 3.77,3.76 3.19,0 7.53,-0.28 13.61,-0.28 4.62,0 22.87,-0.29 45.74,-0.29 29.81,0 52.4,0.87 57.9,0.87 3.19,0 5.21,0 6.08,-1.16 0.58,-0.57 0.3,-2.9 0.3,-4.63 l 0,-32.14 c -0.87,-1.16 -2.03,-1.44 -3.19,-1.44"
         style="fill:#231f20;fill-opacity:1;fill-rule:nonzero;stroke:none"
         id="path3405"
         inkscape:connector-curvature="0" /><path
         d="m 1464.16,3115.16 c -37.64,0 -58.48,0.87 -63.4,0.87 -4.06,0 -13.32,0.29 -18.25,0.29 -4.92,0 -17.35,-0.87 -30.39,-0.87 l -7.53,0.28 c -0.57,1.18 -0.87,1.75 -0.87,2.91 0,0.86 0,2.31 0.58,3.47 10.14,0.88 17.37,2.61 18.82,4.06 2.31,2.6 3.47,7.81 4.05,19.11 0.29,5.78 0.58,12.15 0.58,18.81 0,9.56 -0.29,21.14 -0.29,35.03 0,9.84 -0.29,15.64 -0.29,19.7 -0.28,13.61 -6.65,13.61 -20.84,15.34 -0.58,1.16 -0.88,2.32 -0.88,3.19 0,0.86 0.58,2.89 1.46,3.17 l 6.65,0 c 4.93,0 17.09,-0.28 40.83,-0.28 22.01,0 42.85,-0.3 47.77,-0.3 2.61,0 11.3,-0.28 12.74,-0.28 3.18,0 4.34,-0.29 4.34,-2.91 l 1.45,-28.36 c -1.45,-0.87 -2.03,-1.16 -3.48,-1.16 -0.86,0 -1.73,0 -2.89,0.29 -8.11,14.19 -12.16,17.08 -18.81,21.72 -2.33,1.73 -5.5,2.89 -10.72,3.19 -1.73,0 -6.08,0.28 -17.08,0.28 -8.4,0 -13.03,-0.28 -13.9,-0.28 -1.74,0 -1.45,0 -2.03,-4.94 0,-2.89 -0.28,-8.67 -0.28,-25.18 l 0,-16.2 4.04,0 c 5.8,0 11.3,0.57 14.19,1.43 5.22,1.46 10.14,4.92 13.03,8.99 0.87,1.43 2.31,8.38 2.61,10.42 1.15,0.57 2.61,0.85 4.04,0.85 1.46,0 2.62,-0.28 3.49,-0.85 -0.3,-5.22 -1.46,-14.77 -1.46,-26.94 0,-6.08 0.88,-19.39 0.88,-24.89 -1.45,-0.87 -1.74,-0.87 -3.48,-0.87 -1.16,0 -2.6,0 -3.77,0.29 -1.16,10.71 -2.59,17.96 -11.86,21.71 -4.92,2.03 -8.98,2.6 -13.61,2.6 -2.6,0 -5.79,-0.28 -8.4,-0.57 l 0,-32.72 c 0,-7.53 0.58,-12.15 1.45,-14.76 1.16,-2.03 4.05,-6.38 7.53,-6.96 1.74,-0.28 5.2,-0.85 11.58,-0.85 l 18.25,0 c 4.62,0 11,0.57 13.31,2.01 4.62,2.91 16.21,15.36 20.26,26.94 1.46,0.57 2.62,0.57 3.77,0.57 0.88,0 2.31,-0.3 3.47,-0.87 l 0,-33 c 0,-3.19 -2.02,-3.48 -6.66,-3.48"
         style="fill:#231f20;fill-opacity:1;fill-rule:nonzero;stroke:none"
         id="path3407"
         inkscape:connector-curvature="0" /><path
         d="m 1552.19,3112.27 c -10.42,0 -22.02,4.05 -28.95,7.53 -1.18,0.57 -3.49,1.15 -4.64,1.15 -1.46,0 -5.21,-2.03 -9.27,-4.92 -2.89,0 -6.37,1.45 -7.23,3.77 0,2.6 2.31,10.42 2.31,15.34 0,2.89 -0.88,17.07 -1.16,20.26 1.16,1.74 3.47,2.61 5.5,2.61 0.88,0 1.45,0 2.03,0 2.61,-5.22 7.82,-18.82 11.58,-24.32 7.81,-8.97 19.41,-13.03 27.8,-13.03 9.26,0 16.21,1.74 20.26,6.09 5.79,5.5 6.95,8.97 6.95,15.04 0,4.64 -0.87,8.41 -3.46,11.3 -3.19,4.05 -5.81,5.8 -13.04,9.27 -5.5,2.6 -24.9,7.52 -31.85,11.29 -8.69,4.05 -13.03,7.52 -17.38,12.16 -5.2,6.65 -7.23,15.64 -7.23,22.87 0,19.98 15.92,35.03 38.51,35.03 8.39,0 19.97,-0.86 29.81,-8.69 2.03,2.33 4.64,4.92 7.25,7.25 3.76,0 6.36,-2.03 6.65,-3.48 -0.29,-2.89 -2.03,-10.71 -2.03,-17.08 0,-3.19 2.03,-16.5 2.03,-18.53 -1.45,-0.58 -2.89,-1.73 -4.92,-1.73 -0.57,0 -1.45,0.28 -2.31,0.57 -3.48,6.08 -6.67,16.2 -10.42,21.72 -5.79,7.81 -13.9,10.71 -24.9,10.71 -12.46,0 -22.59,-7.82 -22.59,-18.54 0,-10.41 8.4,-15.34 15.35,-18.53 5.2,-2.01 11.58,-4.34 18.81,-6.65 9.27,-3.19 16.22,-5.5 19.99,-7.53 14.47,-7.53 20.55,-18.24 20.55,-33 0,-23.17 -20.85,-37.93 -44,-37.93"
         style="fill:#231f20;fill-opacity:1;fill-rule:nonzero;stroke:none"
         id="path3409"
         inkscape:connector-curvature="0" /><path
         d="m 1371.51,2918.86 c -37.92,0 -58.47,0.87 -63.69,0.87 -4.05,0 -13.31,0.29 -17.96,0.29 -5.2,0 -17.36,-0.86 -30.68,-0.86 l -7.53,0.28 c -0.58,1.15 -0.58,1.73 -0.58,2.91 0,0.86 0,2.31 0.3,3.46 10.12,0.88 17.37,2.61 19.1,4.05 2.03,2.61 3.47,7.83 4.05,19.11 0,5.79 0.3,12.17 0.3,18.82 0,9.55 -0.3,21.14 -0.3,35.03 0,9.84 0,15.64 0,19.69 -0.28,13.61 -6.95,13.61 -21.14,15.35 -0.28,1.16 -0.57,2.32 -0.57,3.18 0,0.87 0.29,2.9 1.16,3.19 l 6.94,0 c 4.65,0 17.1,-0.29 40.83,-0.29 21.72,0 42.85,-0.3 47.48,-0.3 2.9,0 11.3,-0.27 13.03,-0.27 2.91,0 4.06,-0.3 4.06,-2.91 l 1.74,-28.37 c -1.74,-0.86 -2.04,-1.16 -3.49,-1.16 -1.15,0 -2.02,0 -2.89,0.3 -8.39,14.18 -12.45,17.07 -18.81,21.7 -2.33,1.75 -5.8,2.91 -11.02,3.19 -1.73,0 -6.07,0.29 -16.78,0.29 -8.68,0 -13.03,-0.29 -14.18,-0.29 -1.45,0 -1.17,0 -1.75,-4.93 -0.28,-2.89 -0.58,-8.68 -0.58,-25.18 l 0,-16.22 4.34,0 c 5.5,0 11.01,0.58 14.19,1.46 4.92,1.45 10.14,4.91 12.75,8.96 1.16,1.46 2.31,8.41 2.89,10.44 0.87,0.58 2.31,0.86 4.05,0.86 1.17,0 2.33,-0.28 3.18,-0.86 -0.28,-5.22 -1.15,-14.78 -1.15,-26.94 0,-6.07 0.57,-19.39 0.57,-24.9 -1.15,-0.86 -1.73,-0.86 -3.46,-0.86 -0.88,0 -2.61,0 -3.48,0.28 -1.16,10.72 -2.9,17.95 -11.86,21.72 -4.93,2.03 -8.99,2.61 -13.91,2.61 -2.61,0 -5.78,-0.28 -8.39,-0.58 l 0,-32.72 c 0,-7.52 0.58,-12.15 1.73,-14.76 0.88,-2.03 3.77,-6.37 7.53,-6.95 1.74,-0.28 4.92,-0.86 11.58,-0.86 l 17.95,0 c 4.63,0 11.3,0.58 13.61,2.01 4.34,2.91 15.92,15.34 19.98,26.94 1.74,0.58 2.6,0.58 3.77,0.58 1.15,0 2.31,-0.3 3.75,-0.88 l 0,-32.99 c 0,-3.19 -2.02,-3.49 -6.66,-3.49"
         style="fill:#231f20;fill-opacity:1;fill-rule:nonzero;stroke:none"
         id="path3411"
         inkscape:connector-curvature="0" /><path
         d="m 1553.92,3037.86 c -12.73,-0.59 -23.75,-7.53 -23.75,-27.79 l -0.28,-64.28 c 0,-2.6 1.16,-20.85 1.16,-27.79 -2.03,-1.17 -4.06,-2.03 -5.22,-2.03 -0.58,0 -1.73,0.86 -3.17,2.03 l -88.33,94.96 0.88,-19.4 0.3,-35.03 c 0,-2.61 0.58,-9.27 1.15,-14.19 0.58,-7.81 2.89,-10.42 6.36,-13.32 4.35,-3.75 11.6,-4.92 16.8,-5.51 0.58,-0.85 0.87,-2.01 0.87,-2.89 0,-0.27 -0.29,-2.03 -1.16,-3.18 l -9.56,0 c -8.1,0 -14.46,0.29 -22.87,0.29 -5.49,0 -13.31,-0.57 -18.81,-0.57 l -4.06,0 c -0.28,0.86 -0.28,2.31 -0.28,2.89 0,0.57 0,1.73 0.58,3.19 6.36,0.57 16.21,3.46 19.97,8.68 1.45,3.19 2.02,8.97 2.02,15.05 l 0,44.88 c 0,7.24 -0.28,11 -0.57,17.95 -0.29,5.78 -1.45,10.13 -4.34,13.61 -0.29,0.86 -3.19,3.77 -6.08,6.66 -2.89,2.31 -9.85,4.34 -14.19,6.08 -0.58,1.15 -0.88,2.6 -0.88,2.89 0,0.87 0.3,2.33 0.88,3.19 l 3.19,0 c 2.61,0 16.21,-0.59 26.64,-0.59 l 6.07,0 c 1.16,-0.57 3.19,-1.73 3.77,-2.6 l 65.43,-71.51 c 4.92,-5.5 11.28,-12.74 14.76,-17.37 l 0,51.54 c 0,6.95 -0.29,11.87 -0.58,14.47 -0.57,5.21 -1.73,9.84 -3.76,13.32 -2.03,3.19 -14.19,4.92 -20.56,6.37 -0.58,1.16 -0.58,2.6 -0.58,3.76 0,0.57 0,1.45 0.3,2.61 l 3.76,0 c 6.08,0 15.93,-0.86 22,-0.86 15.06,0 19.69,0.57 27.22,0.57 l 4.92,0 c 0.58,-1.15 0.58,-2.32 0.58,-3.19 0,-0.57 0,-2.02 -0.58,-2.89"
         style="fill:#231f20;fill-opacity:1;fill-rule:nonzero;stroke:none"
         id="path3413"
         inkscape:connector-curvature="0" /><path
         d="m 1966.5,3430.16 c -12.46,-0.58 -23.75,-7.51 -23.75,-27.79 l 0,-64.28 c 0,-2.59 0.87,-20.84 0.87,-27.8 -1.73,-1.15 -4.05,-2.01 -4.92,-2.01 -0.87,0 -1.73,0.86 -3.47,2.01 l -88.3,94.98 1.15,-19.4 0.28,-35.03 c 0,-2.61 0.58,-9.27 0.88,-14.19 0.86,-7.82 3.19,-10.42 6.36,-13.32 4.64,-3.77 11.87,-4.92 16.8,-5.5 0.57,-0.86 0.87,-2.02 0.87,-2.89 0,-0.3 -0.3,-2.03 -0.87,-3.19 l -9.85,0 c -7.81,0 -14.19,0.3 -22.87,0.3 -5.5,0 -13.03,-0.58 -18.53,-0.58 l -4.05,0 c -0.29,0.86 -0.58,2.31 -0.58,2.89 0,0.58 0,1.74 0.86,3.19 6.08,0.57 15.94,3.46 19.69,8.68 1.75,3.18 2.03,8.97 2.03,15.05 l 0,44.88 c 0,7.24 0,11 -0.28,17.96 -0.3,5.78 -1.75,10.12 -4.34,13.61 -0.58,0.86 -3.19,3.75 -6.38,6.65 -2.61,2.31 -9.84,4.34 -14.19,6.08 -0.29,1.15 -0.57,2.61 -0.57,2.89 0,0.88 0.28,2.31 0.57,3.19 l 3.47,0 c 2.33,0 15.94,-0.58 26.36,-0.58 l 6.08,0 c 1.16,-0.58 3.19,-1.73 4.05,-2.61 l 65.43,-71.51 c 4.92,-5.5 11.29,-12.74 14.76,-17.38 l 0,51.55 c 0,6.94 -0.57,11.86 -0.86,14.47 -0.3,5.22 -1.73,9.84 -3.76,13.32 -2.03,3.19 -14.19,4.92 -20.27,6.36 -0.58,1.16 -0.87,2.61 -0.87,3.77 0,0.57 0,1.45 0.58,2.61 l 3.76,0 c 6.08,0 15.92,-0.88 22,-0.88 14.78,0 19.7,0.6 27.21,0.6 l 4.65,0 c 0.57,-1.17 0.87,-2.33 0.87,-3.19 0,-0.58 -0.3,-2.03 -0.87,-2.91"
         style="fill:#231f20;fill-opacity:1;fill-rule:nonzero;stroke:none"
         id="path3415"
         inkscape:connector-curvature="0" /><path
         d="m 2076.22,3418.3 c -6.07,8.1 -13.61,13.02 -24.89,13.02 -10.43,0 -17.09,-4.63 -23.17,-13.02 -7.53,-9.56 -11.57,-24.9 -11.57,-44.3 0,-19.12 4.04,-34.16 11,-43.72 6.37,-9.27 13.61,-13.89 24.6,-13.89 13.33,0 21.14,6.36 27.22,17.08 5.5,9.54 8.11,22.87 8.11,40.24 0,20.55 -4.05,35.03 -11.3,44.59 z m 20.27,-91.49 c -12.16,-11.87 -28.96,-18.82 -44.58,-18.82 -14.76,0 -31.86,6.37 -43.73,17.94 -13.02,12.46 -18.81,29.25 -18.81,47.78 0,17.66 5.79,34.45 18.81,47.18 13.9,13.34 28.97,18.83 44.01,18.83 11,0 21.14,-2.89 33.01,-9.26 19.39,-12.46 30.69,-33.01 30.69,-55.59 0,-17.67 -6.95,-35.33 -19.4,-48.06"
         style="fill:#231f20;fill-opacity:1;fill-rule:nonzero;stroke:none"
         id="path3417"
         inkscape:connector-curvature="0" /><path
         d="m 2274.27,3429.58 c -11.3,-0.86 -18.83,-6.93 -22.29,-14.76 l -47.49,-105.68 c 0,0 -2.32,-1.74 -3.76,-1.74 -1.45,0 -3.49,1.74 -4.34,4.93 -1.16,3.77 -6.96,18.53 -19.69,47.48 l -15.07,34.45 c -5.49,12.75 -9.83,21.14 -11.29,23.74 -5.78,9.57 -12.45,10.43 -19.97,11.58 -1.17,1.16 -1.17,2.33 -1.17,3.19 0,1.16 0,1.73 0.88,3.19 l 7.81,0 c 8.69,0 16.22,-0.58 22.87,-0.58 7.83,0 20.86,0.88 29.83,0.88 l 4.92,0 c 1.15,-0.3 1.45,-2.03 1.45,-2.91 0,-0.58 0,-2.61 -0.57,-3.47 -6.08,-0.58 -18.83,-0.3 -18.83,-8.4 0,-1.74 0,-4.93 1.15,-6.94 l 30.99,-74.12 26.35,61.37 c 2.89,6.95 3.17,13.03 3.17,16.21 0,6.96 -4.92,10.14 -17.95,11.58 -0.28,0.88 -0.58,2.03 -0.58,2.91 0,1.15 0.3,2.89 0.58,3.77 l 3.77,0 c 5.79,0 11.59,-0.88 24.91,-0.88 2.03,0 11.28,0.58 15.63,0.58 l 8.96,0 c 0.59,-1.16 0.88,-1.73 0.88,-2.89 0,-0.87 -0.29,-2.61 -1.15,-3.49"
         style="fill:#231f20;fill-opacity:1;fill-rule:nonzero;stroke:none"
         id="path3419"
         inkscape:connector-curvature="0" /><path
         d="m 1925.67,3200.87 c -1.15,0 -2.03,0.28 -3.76,0.28 -2.61,7.81 -6.08,14.76 -9.27,18.53 -4.92,6.37 -10.12,10.72 -23.15,12.15 -2.91,0.3 -9.85,0.3 -12.17,0.3 l -0.29,-55.29 c 0,-8.69 0,-18.83 0.29,-37.94 0.29,-14.48 6.95,-14.48 22.01,-16.5 0.86,-1.45 0.86,-2.6 0.86,-3.48 0,-1.15 0,-2.01 -0.58,-3.19 l -5.5,0 c -8.96,0 -26.34,0.59 -31.56,0.59 -3.76,0 -22.87,-0.87 -32.14,-0.87 -0.57,1.46 -0.86,1.46 -0.86,3.47 0,0.88 0.29,2.03 0.58,3.19 19.97,1.45 22,5.22 22.88,11.58 0.27,4.06 0.27,20.56 0.27,37.35 l 0,45.75 c 0,5.78 0,11.58 -0.85,15.34 -3.77,0 -16.22,0 -19.7,-1.45 -10.13,-3.77 -17.08,-12.16 -24.89,-27.5 -1.16,-0.3 -2.61,-0.3 -3.49,-0.3 -1.15,0 -2.01,0.3 -2.89,1.16 l 0,32.14 c 0,2.9 0.58,3.76 3.77,3.76 3.19,0 7.53,-0.28 13.61,-0.28 4.62,0 22.87,-0.29 45.74,-0.29 29.83,0 52.41,0.87 57.9,0.87 3.19,0 5.22,0 6.08,-1.16 0.58,-0.57 0.3,-2.9 0.3,-4.63 l 0,-32.14 c -0.88,-1.16 -2.03,-1.44 -3.19,-1.44"
         style="fill:#231f20;fill-opacity:1;fill-rule:nonzero;stroke:none"
         id="path3421"
         inkscape:connector-curvature="0" /><path
         d="m 1996.61,3214.47 -0.29,0 c -2.61,-4.92 -7.25,-15.64 -8.98,-20.27 -6.66,-16.2 -8.97,-21.7 -10.12,-24.03 l 37.33,0 c -2.89,7.53 -12.45,30.4 -17.94,44.3 z m 79.03,-99.31 -9.84,0 c -6.37,0 -13.61,0.87 -21.14,0.87 -11.86,0 -26.92,-0.87 -32.71,-0.87 -0.58,0.57 -0.86,1.75 -0.86,3.18 0,0.88 0.28,2.03 0.57,2.91 12.16,0.58 17.08,2.59 17.08,7.52 0,2.03 0,6.07 -3.77,16.21 -3.76,9.27 -5.78,13.33 -6.65,15.64 -0.58,0.86 -0.87,1.44 -3.47,1.44 l -39.39,0 c -2.59,-3.17 -5.78,-11.86 -9.26,-24.03 -0.86,-3.19 -0.86,-6.08 -0.86,-7.23 0,-4.05 3.77,-8.69 17.66,-8.97 0.87,-1.46 0.87,-2.61 0.87,-3.49 0,-0.86 0,-1.73 -0.3,-2.89 l -3.46,0 c -9.27,0 -11.88,0.58 -21.72,0.58 -6.37,0 -21.72,-0.58 -26.92,-0.58 -0.3,1.16 -0.58,1.46 -0.58,2.61 0,0.86 0,1.74 0.58,3.19 7.51,1.74 14.47,3.75 17.95,9.26 2.01,2.9 8.68,14.47 15.92,32.42 6.95,16.8 15.34,37.94 19.11,46.62 5.2,11 6.95,14.47 8.68,18.24 2.61,5.5 5.5,11 6.66,13.03 1.16,1.45 3.76,2.31 4.92,2.31 2.03,0 4.64,-1.16 5.5,-2.61 1.16,-2.31 2.61,-4.62 2.89,-6.07 7.25,-17.38 13.03,-32.72 22.02,-54.14 4.62,-10.72 6.95,-17.67 11.87,-28.96 3.47,-6.94 5.5,-12.45 8.97,-18.82 4.64,-9.54 12.15,-9.54 19.68,-11.58 0.3,-0.87 1.16,-1.73 1.16,-2.89 0,-1.15 -0.58,-1.74 -1.16,-2.9"
         style="fill:#231f20;fill-opacity:1;fill-rule:nonzero;stroke:none"
         id="path3423"
         inkscape:connector-curvature="0" /><path
         d="m 2269.05,3115.16 -50.67,0.57 -13.89,0 c -0.58,1.18 -0.87,2.61 -0.87,3.19 0,1.74 0.29,2.03 1.15,3.19 2.61,0.29 9.27,0 12.46,1.15 5.22,2.32 7.23,7.54 7.23,15.07 l 0,72.96 c 0,0 0,13.31 0,17.08 l -0.28,0 -26.64,-58.49 c -2.89,-6.37 -6.37,-13.32 -9.26,-20.26 -6.08,-13.61 -9.27,-22.87 -11.01,-28.37 -0.87,-2.33 -2.9,-2.33 -4.06,-2.33 -1.73,0 -2.89,0.58 -3.76,3.48 -3.47,7.52 -5.78,12.44 -6.94,15.63 l -41.7,91.79 -0.87,0 0,-23.45 0.87,-58.5 c 0,-17.95 9.27,-26.34 23.45,-26.34 0.58,-0.87 1.16,-2.61 1.16,-2.89 0,-0.87 -0.28,-2.03 -0.86,-3.19 -0.87,0 -3.77,-0.29 -6.37,-0.29 -1.74,0 -11,0.87 -24.33,0.87 -3.76,0 -11.58,-0.3 -17.66,-0.3 l -8.38,0 c -0.3,1.18 -0.6,2.04 -0.6,3.19 0,0.3 0.3,1.74 0.6,2.61 3.46,0.87 15.62,3.76 18.23,6.38 2.61,2.6 4.92,7.81 4.92,20.26 l 0,64.27 c -0.3,10.13 -1.45,14.19 -6.38,17.66 -2.01,1.45 -9.84,2.33 -16.5,3.19 -0.57,1.16 -0.87,2.61 -0.87,3.46 0,0.88 0.3,2.04 0.87,3.49 4.93,0 13.61,-0.58 22.3,-0.58 l 30.4,0 c 1.16,-0.87 1.74,-1.45 2.61,-3.18 l 37.35,-84.54 6.65,16.79 c 5.8,13.61 14.19,34.15 26.06,56.17 2.61,4.92 5.8,11.28 7.53,14.47 l 47.48,0.87 c 0.58,-1.16 1.16,-2.03 1.16,-3.19 0,-1.15 -0.28,-2.03 -0.87,-3.19 -5.21,-0.86 -14.18,-0.86 -18.52,-8.1 -1.46,-2.32 -2.33,-4.63 -2.33,-14.77 l 0,-60.51 c 0,-23.15 5.79,-25.48 8.4,-27.22 1.45,-0.86 8.69,-1.73 12.74,-1.73 0.58,-1.16 0.88,-2.03 0.88,-3.19 0,-1.73 -0.58,-2.02 -0.88,-3.18"
         style="fill:#231f20;fill-opacity:1;fill-rule:nonzero;stroke:none"
         id="path3425"
         inkscape:connector-curvature="0" /><path
         d="m 1922.78,3004.56 c -1.16,0 -2.03,0.29 -3.76,0.29 -2.61,7.81 -6.08,14.77 -9.27,18.53 -4.92,6.38 -10.14,10.72 -23.17,12.16 -2.89,0.3 -9.84,0.3 -12.15,0.3 l -0.3,-55.31 c 0,-8.69 0,-18.81 0.3,-37.92 0.29,-14.48 6.95,-14.48 21.99,-16.51 0.88,-1.44 0.88,-2.6 0.88,-3.48 0,-1.15 0,-2.03 -0.58,-3.18 l -5.5,0 c -8.98,0 -26.36,0.58 -31.56,0.58 -3.76,0 -22.87,-0.86 -32.14,-0.86 -0.57,1.43 -0.87,1.43 -0.87,3.46 0,0.88 0.3,2.04 0.58,3.19 19.98,1.46 22.01,5.21 22.87,11.58 0.29,4.06 0.29,20.56 0.29,37.36 l 0,45.74 c 0,5.78 0,11.58 -0.87,15.35 -3.76,0 -16.2,0 -19.68,-1.46 -10.13,-3.76 -17.08,-12.15 -24.91,-27.5 -1.16,-0.29 -2.59,-0.29 -3.47,-0.29 -1.15,0 -2.03,0.29 -2.89,1.15 l 0,32.14 c 0,2.91 0.58,3.76 3.77,3.76 3.19,0 7.53,-0.27 13.61,-0.27 4.62,0 22.87,-0.3 45.74,-0.3 29.81,0 52.41,0.87 57.9,0.87 3.19,0 5.21,0 6.08,-1.15 0.58,-0.6 0.3,-2.91 0.3,-4.64 l 0,-32.14 c -0.88,-1.16 -2.03,-1.45 -3.19,-1.45"
         style="fill:#231f20;fill-opacity:1;fill-rule:nonzero;stroke:none"
         id="path3427"
         inkscape:connector-curvature="0" /><path
         d="m 2078.25,3037.27 c -11.29,-0.86 -18.82,-6.94 -22.29,-14.76 l -47.48,-105.68 c 0,0 -2.31,-1.74 -3.77,-1.74 -1.45,0 -3.47,1.74 -4.34,4.93 -1.16,3.76 -6.95,18.53 -19.69,47.48 l -15.06,34.46 c -5.5,12.73 -9.84,21.13 -11.28,23.74 -5.8,9.56 -12.45,10.42 -19.98,11.57 -1.16,1.17 -1.16,2.33 -1.16,3.19 0,1.16 0,1.73 0.86,3.18 l 7.83,0 c 8.68,0 16.21,-0.57 22.87,-0.57 7.81,0 20.84,0.87 29.81,0.87 l 4.93,0 c 1.16,-0.3 1.45,-2.03 1.45,-2.9 0,-0.58 0,-2.6 -0.58,-3.47 -6.08,-0.58 -18.81,-0.3 -18.81,-8.39 0,-1.75 0,-4.93 1.15,-6.95 l 30.99,-74.12 26.34,61.37 c 2.89,6.95 3.19,13.03 3.19,16.22 0,6.95 -4.93,10.14 -17.96,11.57 -0.3,0.88 -0.57,2.03 -0.57,2.91 0,1.15 0.27,2.89 0.57,3.76 l 3.77,0 c 5.78,0 11.57,-0.87 24.88,-0.87 2.04,0 11.3,0.57 15.64,0.57 l 8.99,0 c 0.58,-1.15 0.86,-1.73 0.86,-2.89 0,-0.87 -0.28,-2.6 -1.16,-3.48"
         style="fill:#231f20;fill-opacity:1;fill-rule:nonzero;stroke:none"
         id="path3429"
         inkscape:connector-curvature="0" /><path
         d="m 2271.65,2918.86 -50.38,0.58 -14.19,0 c -0.57,1.15 -0.57,2.61 -0.57,3.18 0,1.74 0,2.04 0.87,3.19 2.89,0.29 9.27,0 12.74,1.16 4.92,2.31 6.95,7.53 6.95,15.06 l 0,72.96 c 0,0 0.3,13.31 0.3,17.08 l -0.58,0 -26.36,-58.48 c -3.19,-6.38 -6.37,-13.33 -9.55,-20.28 -5.79,-13.61 -9.26,-22.87 -11.01,-28.37 -0.58,-2.32 -2.6,-2.32 -4.05,-2.32 -1.45,0 -2.61,0.59 -3.76,3.48 -3.19,7.53 -5.5,12.45 -6.66,15.64 l -41.98,91.78 -0.87,0 0,-23.45 0.87,-58.5 c 0.28,-17.94 9.26,-26.33 23.73,-26.33 0.58,-0.88 0.88,-2.62 0.88,-2.89 0,-0.88 0,-2.04 -0.58,-3.19 -1.16,0 -3.76,-0.3 -6.66,-0.3 -1.73,0 -10.71,0.87 -24.02,0.87 -4.07,0 -11.88,-0.29 -17.67,-0.29 l -8.39,0 c -0.58,1.15 -0.88,2.03 -0.88,3.18 0,0.3 0.3,1.74 0.88,2.62 3.18,0.86 15.63,3.76 18.23,6.37 2.32,2.59 4.64,7.81 4.64,20.26 l 0.28,29.53 -0.28,34.75 c -0.3,10.12 -1.16,14.18 -6.37,17.66 -2.04,1.45 -9.85,2.31 -16.22,3.18 -0.86,1.16 -1.16,2.61 -1.16,3.47 0,0.87 0.3,2.03 1.16,3.48 4.63,0 13.6,-0.57 22.01,-0.57 l 30.69,0 c 0.87,-0.88 1.73,-1.46 2.31,-3.19 l 37.35,-84.54 6.96,16.78 c 5.49,13.61 14.18,34.17 26.04,56.18 2.33,4.92 5.8,11.28 7.53,14.47 l 47.2,0.87 c 0.57,-1.15 1.44,-2.03 1.44,-3.19 0,-1.15 -0.58,-2.02 -1.16,-3.18 -4.92,-0.87 -13.89,-0.87 -18.23,-8.11 -1.46,-2.31 -2.61,-4.62 -2.61,-14.77 l 0,-60.5 c 0,-23.17 5.79,-25.49 8.68,-27.22 1.16,-0.87 8.4,-1.73 12.45,-1.73 0.87,-1.16 1.17,-2.03 1.17,-3.19 0,-1.74 -0.58,-2.03 -1.17,-3.19"
         style="fill:#231f20;fill-opacity:1;fill-rule:nonzero;stroke:none"
         id="path3431"
         inkscape:connector-curvature="0" /></g></g></svg>