<svg class="main-svg" xmlns="http://www.w3.org/2000/svg" xmlns:xlink="http://www.w3.org/1999/xlink" width="700" height="450"><rect x="0" y="0" width="700" height="450" style="fill: rgb(255, 255, 255); fill-opacity: 1;"/><defs id="defs-de03d7"><g class="clips"><clipPath class="axesclip" id="clipde03d7x"><rect x="50" y="0" width="600" height="450"/></clipPath><clipPath class="axesclip" id="clipde03d7y"><rect x="0" y="60" width="700" height="340"/></clipPath><clipPath class="axesclip" id="clipde03d7xy"><rect x="50" y="60" width="600" height="340"/></clipPath><clipPath class="plotclip" id="clipde03d7xyplot"><rect width="600" height="340"/></clipPath></g></defs><g class="bglayer"><rect class="bg" x="50" y="60" width="600" height="340" style="fill: rgb(255, 255, 255); fill-opacity: 1; stroke-width: 0px;"/></g><g class="layer-below"><g class="imagelayer"/><g class="shapelayer"/></g><g class="cartesianlayer"><g class="subplot xy"><g class="layer-subplot"><g class="shapelayer"/><g class="imagelayer"/></g><g class="gridlayer" transform="translate(50,60)"><path class="xgrid crisp" d="M0,0v340" transform="translate(120.46,0)" style="stroke: rgb(238, 238, 238); stroke-opacity: 1; stroke-width: 1px;"/><path class="xgrid crisp" d="M0,0v340" transform="translate(240.94,0)" style="stroke: rgb(238, 238, 238); stroke-opacity: 1; stroke-width: 1px;"/><path class="xgrid crisp" d="M0,0v340" transform="translate(361.42,0)" style="stroke: rgb(238, 238, 238); stroke-opacity: 1; stroke-width: 1px;"/><path class="xgrid crisp" d="M0,0v340" transform="translate(481.9,0)" style="stroke: rgb(238, 238, 238); stroke-opacity: 1; stroke-width: 1px;"/><path class="ygrid crisp" d="M0,0h600" transform="translate(0,318.79)" style="stroke: rgb(238, 238, 238); stroke-opacity: 1; stroke-width: 1px;"/><path class="ygrid crisp" d="M0,0h600" transform="translate(0,282.17)" style="stroke: rgb(238, 238, 238); stroke-opacity: 1; stroke-width: 1px;"/><path class="ygrid crisp" d="M0,0h600" transform="translate(0,245.55)" style="stroke: rgb(238, 238, 238); stroke-opacity: 1; stroke-width: 1px;"/><path class="ygrid crisp" d="M0,0h600" transform="translate(0,208.92)" style="stroke: rgb(238, 238, 238); stroke-opacity: 1; stroke-width: 1px;"/><path class="ygrid crisp" d="M0,0h600" transform="translate(0,172.3)" style="stroke: rgb(238, 238, 238); stroke-opacity: 1; stroke-width: 1px;"/><path class="ygrid crisp" d="M0,0h600" transform="translate(0,135.68)" style="stroke: rgb(238, 238, 238); stroke-opacity: 1; stroke-width: 1px;"/><path class="ygrid crisp" d="M0,0h600" transform="translate(0,99.05)" style="stroke: rgb(238, 238, 238); stroke-opacity: 1; stroke-width: 1px;"/><path class="ygrid crisp" d="M0,0h600" transform="translate(0,62.43)" style="stroke: rgb(238, 238, 238); stroke-opacity: 1; stroke-width: 1px;"/><path class="ygrid crisp" d="M0,0h600" transform="translate(0,25.81)" style="stroke: rgb(238, 238, 238); stroke-opacity: 1; stroke-width: 1px;"/></g><g class="overgrid"/><g class="zerolinelayer" transform="translate(50,60)"/><g class="overzero"/><g class="plot" transform="translate(50, 60)" clip-path="url(#clipde03d7xyplot)"><g class="imagelayer"/><g class="maplayer"/><g class="barlayer"/><g class="carpetlayer"/><g class="boxlayer"/><g class="scatterlayer"><g class="trace scatter trace32d454" style="stroke-miterlimit: 2; opacity: 1;"><path class="js-line" d="M0,17L2.41,154.15L4.82,185.41L7.23,197.35L9.64,197.34L12.05,203.22L14.46,220.71L16.87,220.21L19.28,234.9L21.69,229.55L24.1,252.16L26.51,251.55L28.92,249.51L31.33,242.14L33.73,238.85L38.55,237.45L40.96,251.79L43.37,256.34L45.78,250.14L48.19,246.39L50.6,262.62L53.01,268.97L55.42,239.51L57.83,243.94L60.24,251.82L62.65,261.16L65.06,244.05L67.47,257.7L69.88,238.39L72.29,253.86L74.7,277.34L77.11,256.49L79.52,256.12L81.93,251.68L84.34,257.88L86.75,262.85L89.16,248.4L91.57,260.07L93.98,240.95L96.39,266.42L98.8,252.88L101.2,255.76L103.61,253.16L106.02,246.76L108.43,259.84L110.84,260.47L113.25,248.84L115.66,264.19L118.07,247.68L120.48,258.23L122.89,263.13L125.3,263.76L127.71,260.93L130.12,264.01L132.53,261.83L134.94,257.88L137.35,261.99L139.76,267.25L142.17,262.13L144.58,270.99L146.99,256.78L149.4,258.8L151.81,245.61L156.63,267.34L159.04,273.79L161.45,269.93L163.86,269L166.27,272.18L168.67,257.98L171.08,270.09L173.49,270.96L175.9,260.51L178.31,262.64L180.72,262.39L183.13,270.71L187.95,258.3L190.36,263.26L192.77,266.13L195.18,266.74L197.59,268.67L200,261.49L202.41,273.43L204.82,273.52L207.23,256.26L209.64,276.62L214.46,262.75L216.87,261.47L219.28,256.69L221.69,268.27L224.1,257.68L226.51,257.75L228.92,256.68L231.33,258.63L233.73,253.39L236.14,265.88L238.55,252.11L240.96,265.38L243.37,266.05L245.78,300.96L248.19,260.84L250.6,261.19L253.01,258.46L255.42,275.04L260.24,264.33L262.65,261.43L265.06,256.25L267.47,268.48L269.88,314.38L272.29,265.54L274.7,268.03L277.11,265.46L279.52,262.33L281.93,257.33L284.34,306.3L286.75,267.69L289.16,268.29L291.57,273.7L293.98,252.45L296.39,261.79L298.8,259.95L301.2,269.47L303.61,263.11L306.02,270.13L308.43,268.79L310.84,264.61L313.25,270.96L315.66,271L318.07,268.42L320.48,323L322.89,286.1L325.3,263.87L327.71,268.42L330.12,306.58L332.53,262.62L334.94,261.54L337.35,257.02L339.76,274.2L342.17,262.94L344.58,276.17L346.99,267.4L349.4,264.65L351.81,267.4L354.22,258.95L356.63,267.45L359.04,260.58L361.45,259.01L363.86,267.06L366.27,292.65L368.67,271.02L371.08,270.63L373.49,264.34L375.9,268.18L378.31,266.53L380.72,266.54L383.13,274.63L385.54,263.04L387.95,268.33L390.36,268.23L392.77,271.52L395.18,269.29L397.59,280.07L400,276.32L402.41,262.06L404.82,270.95L407.23,270.92L409.64,265.08L412.05,276.09L414.46,267.55L416.87,272.67L419.28,270.62L421.69,257.95L424.1,268.2L426.51,264.79L428.92,266.61L431.33,265.12L433.73,263.85L436.14,269.81L438.55,288.28L440.96,268.97L443.37,275.99L445.78,287.97L450.6,260.33L453.01,266.82L455.42,284.86L457.83,263.69L460.24,277.29L462.65,253.42L465.06,256.13L467.47,270.2L469.88,284.49L472.29,273.12L474.7,268.56L477.11,288.87L479.52,268.38L481.93,259.01L484.34,291.22L486.75,284.6L489.16,268.77L491.57,275.86L493.98,251.34L496.39,263.7L498.8,273.43L501.2,322.85L503.61,270.57L506.02,266.76L508.43,275.74L510.84,265.8L513.25,305.48L515.66,268.01L518.07,287.32L520.48,270.41L522.89,262.88L525.3,267.29L527.71,277.16L530.12,266.13L534.94,261.09L537.35,307.46L539.76,267.06L542.17,310.47L544.58,263.9L546.99,271.41L549.4,260.06L551.81,271.32L554.22,264.26L556.63,292.94L559.04,283.12L561.45,267.45L563.86,299.06L566.27,278.06L568.67,280.15L571.08,272.09L573.49,257.75L575.9,265.54L578.31,269.94L580.72,268.67L583.13,275.3L585.54,259.35L590.36,274.29L592.77,271.89L595.18,258.26L597.59,279.82L600,279.14" style="vector-effect: non-scaling-stroke; fill: none; stroke: rgb(31, 119, 180); stroke-opacity: 1; stroke-width: 2px; opacity: 1;"/><g class="points"/></g></g></g><g class="overplot"/><path class="xlines crisp" transform="translate(50,60)" d="M-1,340.5h602" style="fill: none; stroke-width: 1px; stroke: rgb(0, 0, 0); stroke-opacity: 0;"/><path class="ylines crisp" transform="translate(50,60)" d="M-0.5,-1v341" stroke-width="1px" style="fill: none; stroke: rgb(0, 0, 0); stroke-opacity: 0;"/><g class="overlines"/><g class="xaxislayer" transform="translate(50,60)"><g class="xtick"><text text-anchor="middle" x="0" y="354" transform="translate(-0.02,0)" style="font-family: 'Open Sans', verdana, arial, sans-serif; font-size: 12px; fill: rgb(68, 68, 68); fill-opacity: 1; visibility: visible; white-space: pre;" data-bb="24">0</text></g><g class="xtick"><text text-anchor="middle" x="0" y="354" transform="translate(120.46,0)" style="font-family: 'Open Sans', verdana, arial, sans-serif; font-size: 12px; fill: rgb(68, 68, 68); fill-opacity: 1; visibility: visible; white-space: pre;" data-bb="25">5k</text></g><g class="xtick"><text text-anchor="middle" x="0" y="354" transform="translate(240.94,0)" style="font-family: 'Open Sans', verdana, arial, sans-serif; font-size: 12px; fill: rgb(68, 68, 68); fill-opacity: 1; visibility: visible; white-space: pre;" data-bb="26">10k</text></g><g class="xtick"><text text-anchor="middle" x="0" y="354" transform="translate(361.42,0)" style="font-family: 'Open Sans', verdana, arial, sans-serif; font-size: 12px; fill: rgb(68, 68, 68); fill-opacity: 1; visibility: visible; white-space: pre;" data-bb="27">15k</text></g><g class="xtick"><text text-anchor="middle" x="0" y="354" transform="translate(481.9,0)" style="font-family: 'Open Sans', verdana, arial, sans-serif; font-size: 12px; fill: rgb(68, 68, 68); fill-opacity: 1; visibility: visible; white-space: pre;" data-bb="28">20k</text></g></g><g class="yaxislayer" transform="translate(50,60)"><g class="ytick"><text text-anchor="end" x="-2" y="6" transform="translate(0,318.79)" style="font-family: 'Open Sans', verdana, arial, sans-serif; font-size: 12px; fill: rgb(68, 68, 68); fill-opacity: 1; visibility: visible; white-space: pre;">1.5</text></g><g class="ytick"><text text-anchor="end" x="-2" y="6" transform="translate(0,282.17)" style="font-family: 'Open Sans', verdana, arial, sans-serif; font-size: 12px; fill: rgb(68, 68, 68); fill-opacity: 1; visibility: visible; white-space: pre;">2</text></g><g class="ytick"><text text-anchor="end" x="-2" y="6" transform="translate(0,245.55)" style="font-family: 'Open Sans', verdana, arial, sans-serif; font-size: 12px; fill: rgb(68, 68, 68); fill-opacity: 1; visibility: visible; white-space: pre;">2.5</text></g><g class="ytick"><text text-anchor="end" x="-2" y="6" transform="translate(0,208.92)" style="font-family: 'Open Sans', verdana, arial, sans-serif; font-size: 12px; fill: rgb(68, 68, 68); fill-opacity: 1; visibility: visible; white-space: pre;">3</text></g><g class="ytick"><text text-anchor="end" x="-2" y="6" transform="translate(0,172.3)" style="font-family: 'Open Sans', verdana, arial, sans-serif; font-size: 12px; fill: rgb(68, 68, 68); fill-opacity: 1; visibility: visible; white-space: pre;">3.5</text></g><g class="ytick"><text text-anchor="end" x="-2" y="6" transform="translate(0,135.68)" style="font-family: 'Open Sans', verdana, arial, sans-serif; font-size: 12px; fill: rgb(68, 68, 68); fill-opacity: 1; visibility: visible; white-space: pre;">4</text></g><g class="ytick"><text text-anchor="end" x="-2" y="6" transform="translate(0,99.05)" style="font-family: 'Open Sans', verdana, arial, sans-serif; font-size: 12px; fill: rgb(68, 68, 68); fill-opacity: 1; visibility: visible; white-space: pre;">4.5</text></g><g class="ytick"><text text-anchor="end" x="-2" y="6" transform="translate(0,62.43)" style="font-family: 'Open Sans', verdana, arial, sans-serif; font-size: 12px; fill: rgb(68, 68, 68); fill-opacity: 1; visibility: visible; white-space: pre;">5</text></g><g class="ytick"><text text-anchor="end" x="-2" y="6" transform="translate(0,25.81)" style="font-family: 'Open Sans', verdana, arial, sans-serif; font-size: 12px; fill: rgb(68, 68, 68); fill-opacity: 1; visibility: visible; white-space: pre;">5.5</text></g></g><g class="overaxes"/></g></g><g class="ternarylayer"/><g class="geolayer"/><g class="layer-above"><g class="imagelayer"/><g class="shapelayer"/></g><g class="pielayer"/><g class="glimages"/><g class="infolayer"><g class="g-gtitle"><text class="gtitle" x="350" y="30" text-anchor="middle" style="font-family: 'Open Sans', verdana, arial, sans-serif; font-size: 17px; fill: rgb(68, 68, 68); opacity: 1; font-weight: normal; white-space: pre; visibility: visible;">Small Model Training Loss</text></g><g class="g-xtitle" data-bb="29" transform="translate(0,-6)"><text class="xtitle" x="350" y="452" text-anchor="middle" style="font-family: 'Open Sans', verdana, arial, sans-serif; font-size: 14px; fill: rgb(68, 68, 68); opacity: 1; font-weight: normal; white-space: pre; visibility: visible;">Training Steps</text></g><g class="g-ytitle" data-bb="30" transform="translate(3,0)"><text class="ytitle" transform="rotate(-90,12,230) translate(0, 0)" x="12" y="230" text-anchor="middle" style="font-family: 'Open Sans', verdana, arial, sans-serif; font-size: 14px; fill: rgb(68, 68, 68); opacity: 1; font-weight: normal; white-space: pre; visibility: visible;">Loss</text></g></g></svg>